G75*
%MOIN*%
%OFA0B0*%
%FSLAX25Y25*%
%IPPOS*%
%LPD*%
%AMOC8*
5,1,8,0,0,1.08239X$1,22.5*
%
%ADD10C,0.09461*%
%ADD11C,0.06000*%
%ADD12OC8,0.06000*%
%ADD13C,0.07100*%
%ADD14OC8,0.07100*%
%ADD15C,0.08200*%
%ADD16R,0.03950X0.03950*%
%ADD17C,0.06400*%
%ADD18C,0.06000*%
%ADD19C,0.06800*%
%ADD20C,0.08200*%
%ADD21C,0.06343*%
%ADD22C,0.12611*%
%ADD23C,0.04343*%
%ADD24R,0.02178X0.02178*%
%ADD25R,0.02178X0.01981*%
%ADD26C,0.11800*%
%ADD27C,0.14800*%
%ADD28C,0.10800*%
%ADD29OC8,0.07800*%
%ADD30C,0.05300*%
%ADD31R,0.05162X0.05162*%
%ADD32C,0.05162*%
%ADD33C,0.15824*%
D10*
X0068500Y0033500D03*
D11*
X0093400Y0126000D02*
X0098600Y0126000D01*
X0098600Y0136000D02*
X0093400Y0136000D01*
X0093400Y0146000D02*
X0098600Y0146000D01*
X0098600Y0156000D02*
X0093400Y0156000D01*
X0103400Y0181000D02*
X0108600Y0181000D01*
X0108600Y0191000D02*
X0103400Y0191000D01*
X0103400Y0201000D02*
X0108600Y0201000D01*
X0108600Y0211000D02*
X0103400Y0211000D01*
X0103400Y0221000D02*
X0108600Y0221000D01*
X0108600Y0231000D02*
X0103400Y0231000D01*
X0103400Y0241000D02*
X0108600Y0241000D01*
X0108600Y0261000D02*
X0103400Y0261000D01*
X0103400Y0271000D02*
X0108600Y0271000D01*
X0108600Y0281000D02*
X0103400Y0281000D01*
X0103400Y0291000D02*
X0108600Y0291000D01*
X0108600Y0301000D02*
X0103400Y0301000D01*
X0103400Y0311000D02*
X0108600Y0311000D01*
X0108600Y0321000D02*
X0103400Y0321000D01*
X0133400Y0321000D02*
X0138600Y0321000D01*
X0138600Y0311000D02*
X0133400Y0311000D01*
X0133400Y0301000D02*
X0138600Y0301000D01*
X0138600Y0291000D02*
X0133400Y0291000D01*
X0133400Y0281000D02*
X0138600Y0281000D01*
X0138600Y0271000D02*
X0133400Y0271000D01*
X0133400Y0261000D02*
X0138600Y0261000D01*
X0138600Y0241000D02*
X0133400Y0241000D01*
X0133400Y0231000D02*
X0138600Y0231000D01*
X0138600Y0221000D02*
X0133400Y0221000D01*
X0133400Y0211000D02*
X0138600Y0211000D01*
X0138600Y0201000D02*
X0133400Y0201000D01*
X0133400Y0191000D02*
X0138600Y0191000D01*
X0138600Y0181000D02*
X0133400Y0181000D01*
X0128600Y0156000D02*
X0123400Y0156000D01*
X0123400Y0146000D02*
X0128600Y0146000D01*
X0128600Y0136000D02*
X0123400Y0136000D01*
X0123400Y0126000D02*
X0128600Y0126000D01*
X0198400Y0121000D02*
X0203600Y0121000D01*
X0203600Y0111000D02*
X0198400Y0111000D01*
X0198400Y0101000D02*
X0203600Y0101000D01*
X0203600Y0091000D02*
X0198400Y0091000D01*
X0198400Y0081000D02*
X0203600Y0081000D01*
X0203600Y0071000D02*
X0198400Y0071000D01*
X0198400Y0061000D02*
X0203600Y0061000D01*
X0258400Y0061000D02*
X0263600Y0061000D01*
X0263600Y0071000D02*
X0258400Y0071000D01*
X0258400Y0081000D02*
X0263600Y0081000D01*
X0263600Y0091000D02*
X0258400Y0091000D01*
X0258400Y0101000D02*
X0263600Y0101000D01*
X0263600Y0111000D02*
X0258400Y0111000D01*
X0258400Y0121000D02*
X0263600Y0121000D01*
X0263600Y0131000D02*
X0258400Y0131000D01*
X0258400Y0141000D02*
X0263600Y0141000D01*
X0263600Y0151000D02*
X0258400Y0151000D01*
X0258400Y0161000D02*
X0263600Y0161000D01*
X0263600Y0171000D02*
X0258400Y0171000D01*
X0258400Y0181000D02*
X0263600Y0181000D01*
X0263600Y0191000D02*
X0258400Y0191000D01*
X0258400Y0201000D02*
X0263600Y0201000D01*
X0263600Y0211000D02*
X0258400Y0211000D01*
X0258400Y0221000D02*
X0263600Y0221000D01*
X0263600Y0231000D02*
X0258400Y0231000D01*
X0258400Y0241000D02*
X0263600Y0241000D01*
X0263600Y0251000D02*
X0258400Y0251000D01*
X0256000Y0283400D02*
X0256000Y0288600D01*
X0246000Y0288600D02*
X0246000Y0283400D01*
X0236000Y0283400D02*
X0236000Y0288600D01*
X0226000Y0288600D02*
X0226000Y0283400D01*
X0226000Y0313400D02*
X0226000Y0318600D01*
X0236000Y0318600D02*
X0236000Y0313400D01*
X0246000Y0313400D02*
X0246000Y0318600D01*
X0256000Y0318600D02*
X0256000Y0313400D01*
X0266000Y0313400D02*
X0266000Y0318600D01*
X0276000Y0318600D02*
X0276000Y0313400D01*
X0286000Y0313400D02*
X0286000Y0318600D01*
X0296000Y0318600D02*
X0296000Y0313400D01*
X0296000Y0288600D02*
X0296000Y0283400D01*
X0286000Y0283400D02*
X0286000Y0288600D01*
X0276000Y0288600D02*
X0276000Y0283400D01*
X0266000Y0283400D02*
X0266000Y0288600D01*
X0203600Y0251000D02*
X0198400Y0251000D01*
X0198400Y0241000D02*
X0203600Y0241000D01*
X0203600Y0231000D02*
X0198400Y0231000D01*
X0198400Y0221000D02*
X0203600Y0221000D01*
X0203600Y0211000D02*
X0198400Y0211000D01*
X0198400Y0201000D02*
X0203600Y0201000D01*
X0203600Y0191000D02*
X0198400Y0191000D01*
X0198400Y0181000D02*
X0203600Y0181000D01*
X0203600Y0171000D02*
X0198400Y0171000D01*
X0198400Y0161000D02*
X0203600Y0161000D01*
X0203600Y0151000D02*
X0198400Y0151000D01*
X0198400Y0141000D02*
X0203600Y0141000D01*
X0203600Y0131000D02*
X0198400Y0131000D01*
X0068600Y0258500D02*
X0063400Y0258500D01*
X0063400Y0268500D02*
X0068600Y0268500D01*
X0068600Y0278500D02*
X0063400Y0278500D01*
X0063400Y0288500D02*
X0068600Y0288500D01*
X0068600Y0298500D02*
X0063400Y0298500D01*
X0063400Y0308500D02*
X0068600Y0308500D01*
X0068600Y0318500D02*
X0063400Y0318500D01*
X0038600Y0318500D02*
X0033400Y0318500D01*
X0033400Y0308500D02*
X0038600Y0308500D01*
X0038600Y0298500D02*
X0033400Y0298500D01*
X0033400Y0288500D02*
X0038600Y0288500D01*
X0038600Y0278500D02*
X0033400Y0278500D01*
X0033400Y0268500D02*
X0038600Y0268500D01*
X0038600Y0258500D02*
X0033400Y0258500D01*
X0233500Y0378400D02*
X0233500Y0383600D01*
X0243500Y0383600D02*
X0243500Y0378400D01*
X0253500Y0378400D02*
X0253500Y0383600D01*
X0263500Y0383600D02*
X0263500Y0378400D01*
X0273500Y0378400D02*
X0273500Y0383600D01*
X0283500Y0383600D02*
X0283500Y0378400D01*
X0293500Y0378400D02*
X0293500Y0383600D01*
X0303500Y0383600D02*
X0303500Y0378400D01*
X0313500Y0378400D02*
X0313500Y0383600D01*
X0323500Y0383600D02*
X0323500Y0378400D01*
X0333500Y0378400D02*
X0333500Y0383600D01*
X0343500Y0383600D02*
X0343500Y0378400D01*
X0353500Y0378400D02*
X0353500Y0383600D01*
X0363500Y0383600D02*
X0363500Y0378400D01*
X0373500Y0378400D02*
X0373500Y0383600D01*
X0383500Y0383600D02*
X0383500Y0378400D01*
X0393500Y0378400D02*
X0393500Y0383600D01*
X0403500Y0383600D02*
X0403500Y0378400D01*
X0413500Y0378400D02*
X0413500Y0383600D01*
X0423500Y0383600D02*
X0423500Y0378400D01*
X0423500Y0438400D02*
X0423500Y0443600D01*
X0413500Y0443600D02*
X0413500Y0438400D01*
X0403500Y0438400D02*
X0403500Y0443600D01*
X0393500Y0443600D02*
X0393500Y0438400D01*
X0383500Y0438400D02*
X0383500Y0443600D01*
X0373500Y0443600D02*
X0373500Y0438400D01*
X0363500Y0438400D02*
X0363500Y0443600D01*
X0353500Y0443600D02*
X0353500Y0438400D01*
X0343500Y0438400D02*
X0343500Y0443600D01*
X0333500Y0443600D02*
X0333500Y0438400D01*
X0323500Y0438400D02*
X0323500Y0443600D01*
X0313500Y0443600D02*
X0313500Y0438400D01*
X0303500Y0438400D02*
X0303500Y0443600D01*
X0293500Y0443600D02*
X0293500Y0438400D01*
X0283500Y0438400D02*
X0283500Y0443600D01*
X0273500Y0443600D02*
X0273500Y0438400D01*
X0263500Y0438400D02*
X0263500Y0443600D01*
X0253500Y0443600D02*
X0253500Y0438400D01*
X0243500Y0438400D02*
X0243500Y0443600D01*
X0233500Y0443600D02*
X0233500Y0438400D01*
X0232969Y0460713D02*
X0232969Y0465913D01*
X0222969Y0465913D02*
X0222969Y0460713D01*
X0212969Y0460713D02*
X0212969Y0465913D01*
X0202969Y0465913D02*
X0202969Y0460713D01*
X0242969Y0460713D02*
X0242969Y0465913D01*
X0252969Y0465913D02*
X0252969Y0460713D01*
X0262969Y0460713D02*
X0262969Y0465913D01*
X0272969Y0465913D02*
X0272969Y0460713D01*
X0282969Y0460713D02*
X0282969Y0465913D01*
X0292969Y0465913D02*
X0292969Y0460713D01*
X0302969Y0460713D02*
X0302969Y0465913D01*
X0312969Y0465913D02*
X0312969Y0460713D01*
X0322969Y0460713D02*
X0322969Y0465913D01*
X0332969Y0465913D02*
X0332969Y0460713D01*
X0342969Y0460713D02*
X0342969Y0465913D01*
X0352969Y0465913D02*
X0352969Y0460713D01*
X0513400Y0441000D02*
X0518600Y0441000D01*
X0518600Y0431000D02*
X0513400Y0431000D01*
X0513400Y0421000D02*
X0518600Y0421000D01*
X0518600Y0411000D02*
X0513400Y0411000D01*
X0513400Y0401000D02*
X0518600Y0401000D01*
X0518600Y0391000D02*
X0513400Y0391000D01*
X0513400Y0381000D02*
X0518600Y0381000D01*
X0518600Y0371000D02*
X0513400Y0371000D01*
X0513400Y0361000D02*
X0518600Y0361000D01*
X0518600Y0351000D02*
X0513400Y0351000D01*
X0543400Y0351000D02*
X0548600Y0351000D01*
X0548600Y0361000D02*
X0543400Y0361000D01*
X0543400Y0371000D02*
X0548600Y0371000D01*
X0548600Y0381000D02*
X0543400Y0381000D01*
X0543400Y0391000D02*
X0548600Y0391000D01*
X0548600Y0401000D02*
X0543400Y0401000D01*
X0543400Y0411000D02*
X0548600Y0411000D01*
X0548600Y0421000D02*
X0543400Y0421000D01*
X0543400Y0431000D02*
X0548600Y0431000D01*
X0548600Y0441000D02*
X0543400Y0441000D01*
X0506000Y0198600D02*
X0506000Y0193400D01*
X0496000Y0193400D02*
X0496000Y0198600D01*
X0486000Y0198600D02*
X0486000Y0193400D01*
X0476000Y0193400D02*
X0476000Y0198600D01*
X0466000Y0198600D02*
X0466000Y0193400D01*
X0456000Y0193400D02*
X0456000Y0198600D01*
X0446000Y0198600D02*
X0446000Y0193400D01*
X0436000Y0193400D02*
X0436000Y0198600D01*
X0426000Y0198600D02*
X0426000Y0193400D01*
X0416000Y0193400D02*
X0416000Y0198600D01*
X0406000Y0198600D02*
X0406000Y0193400D01*
X0396000Y0193400D02*
X0396000Y0198600D01*
X0386000Y0198600D02*
X0386000Y0193400D01*
X0376000Y0193400D02*
X0376000Y0198600D01*
X0376000Y0138600D02*
X0376000Y0133400D01*
X0386000Y0133400D02*
X0386000Y0138600D01*
X0396000Y0138600D02*
X0396000Y0133400D01*
X0406000Y0133400D02*
X0406000Y0138600D01*
X0416000Y0138600D02*
X0416000Y0133400D01*
X0426000Y0133400D02*
X0426000Y0138600D01*
X0436000Y0138600D02*
X0436000Y0133400D01*
X0446000Y0133400D02*
X0446000Y0138600D01*
X0456000Y0138600D02*
X0456000Y0133400D01*
X0466000Y0133400D02*
X0466000Y0138600D01*
X0476000Y0138600D02*
X0476000Y0133400D01*
X0486000Y0133400D02*
X0486000Y0138600D01*
X0496000Y0138600D02*
X0496000Y0133400D01*
X0506000Y0133400D02*
X0506000Y0138600D01*
D12*
X0521000Y0156000D03*
X0521000Y0166000D03*
X0556000Y0213500D03*
X0566000Y0213500D03*
X0516000Y0106000D03*
X0516000Y0096000D03*
X0463500Y0098500D03*
X0463500Y0068500D03*
X0456000Y0056000D03*
X0456000Y0046000D03*
X0436000Y0033500D03*
X0436000Y0063500D03*
X0381000Y0061000D03*
X0351000Y0061000D03*
X0336000Y0076000D03*
X0336000Y0086000D03*
X0343500Y0101000D03*
X0343500Y0111000D03*
X0343500Y0121000D03*
X0343500Y0131000D03*
X0343500Y0141000D03*
X0343500Y0151000D03*
X0313500Y0151000D03*
X0313500Y0141000D03*
X0313500Y0131000D03*
X0313500Y0121000D03*
X0313500Y0111000D03*
X0313500Y0101000D03*
X0321000Y0043500D03*
X0316000Y0023500D03*
X0306000Y0023500D03*
X0291000Y0043500D03*
X0276000Y0038500D03*
X0276000Y0028500D03*
X0226000Y0048500D03*
X0216000Y0048500D03*
X0188500Y0031000D03*
X0188500Y0021000D03*
X0173500Y0048500D03*
X0153500Y0071000D03*
X0143500Y0048500D03*
X0123500Y0071000D03*
X0123500Y0111000D03*
X0106000Y0111000D03*
X0096000Y0111000D03*
X0081000Y0116000D03*
X0081000Y0146000D03*
X0051000Y0181000D03*
X0066000Y0191000D03*
X0066000Y0201000D03*
X0051000Y0211000D03*
X0036000Y0216000D03*
X0026000Y0221000D03*
X0026000Y0191000D03*
X0036000Y0186000D03*
X0078500Y0191000D03*
X0078500Y0201000D03*
X0151000Y0241000D03*
X0151000Y0251000D03*
X0088500Y0301000D03*
X0088500Y0311000D03*
X0068500Y0331000D03*
X0058500Y0331000D03*
X0156000Y0436000D03*
X0166000Y0436000D03*
X0181000Y0436000D03*
X0181000Y0446000D03*
X0198500Y0448500D03*
X0208500Y0448500D03*
X0156000Y0456000D03*
X0156000Y0486000D03*
X0286000Y0366000D03*
X0296000Y0366000D03*
X0276000Y0271000D03*
X0266000Y0271000D03*
X0153500Y0111000D03*
X0521000Y0456000D03*
X0531000Y0456000D03*
X0373500Y0486000D03*
X0343500Y0486000D03*
D13*
X0486000Y0106000D03*
X0206000Y0033500D03*
D14*
X0206000Y0023500D03*
X0486000Y0096000D03*
D15*
X0011000Y0076000D03*
X0011000Y0066000D03*
X0011000Y0056000D03*
X0011000Y0156000D03*
X0011000Y0168500D03*
D16*
X0115547Y0036000D03*
X0121453Y0036000D03*
D17*
X0168200Y0061000D02*
X0173800Y0061000D01*
X0173800Y0071000D02*
X0168200Y0071000D01*
X0168200Y0081000D02*
X0173800Y0081000D01*
X0173800Y0091000D02*
X0168200Y0091000D01*
X0168200Y0101000D02*
X0173800Y0101000D01*
X0173800Y0111000D02*
X0168200Y0111000D01*
X0168200Y0121000D02*
X0173800Y0121000D01*
X0173800Y0131000D02*
X0168200Y0131000D01*
X0168200Y0141000D02*
X0173800Y0141000D01*
X0173800Y0151000D02*
X0168200Y0151000D01*
X0168200Y0161000D02*
X0173800Y0161000D01*
X0173800Y0171000D02*
X0168200Y0171000D01*
X0168200Y0181000D02*
X0173800Y0181000D01*
X0173800Y0191000D02*
X0168200Y0191000D01*
X0168200Y0201000D02*
X0173800Y0201000D01*
X0173800Y0211000D02*
X0168200Y0211000D01*
X0168200Y0221000D02*
X0173800Y0221000D01*
X0173800Y0231000D02*
X0168200Y0231000D01*
X0168200Y0241000D02*
X0173800Y0241000D01*
X0173800Y0251000D02*
X0168200Y0251000D01*
X0138800Y0336000D02*
X0133200Y0336000D01*
X0133200Y0346000D02*
X0138800Y0346000D01*
X0138800Y0356000D02*
X0133200Y0356000D01*
X0133200Y0366000D02*
X0138800Y0366000D01*
X0138800Y0376000D02*
X0133200Y0376000D01*
X0133200Y0386000D02*
X0138800Y0386000D01*
X0138800Y0396000D02*
X0133200Y0396000D01*
X0133200Y0406000D02*
X0138800Y0406000D01*
X0138800Y0416000D02*
X0133200Y0416000D01*
X0133200Y0426000D02*
X0138800Y0426000D01*
X0138800Y0436000D02*
X0133200Y0436000D01*
X0133200Y0446000D02*
X0138800Y0446000D01*
X0138800Y0456000D02*
X0133200Y0456000D01*
X0133200Y0466000D02*
X0138800Y0466000D01*
X0043800Y0466000D02*
X0038200Y0466000D01*
X0038200Y0456000D02*
X0043800Y0456000D01*
X0043800Y0446000D02*
X0038200Y0446000D01*
X0038200Y0436000D02*
X0043800Y0436000D01*
X0043800Y0426000D02*
X0038200Y0426000D01*
X0038200Y0416000D02*
X0043800Y0416000D01*
X0043800Y0406000D02*
X0038200Y0406000D01*
X0038200Y0396000D02*
X0043800Y0396000D01*
X0043800Y0386000D02*
X0038200Y0386000D01*
X0038200Y0376000D02*
X0043800Y0376000D01*
X0043800Y0366000D02*
X0038200Y0366000D01*
X0038200Y0356000D02*
X0043800Y0356000D01*
X0043800Y0346000D02*
X0038200Y0346000D01*
X0038200Y0336000D02*
X0043800Y0336000D01*
X0013800Y0201000D02*
X0008200Y0201000D01*
X0008200Y0191000D02*
X0013800Y0191000D01*
X0013800Y0181000D02*
X0008200Y0181000D01*
X0293200Y0181000D02*
X0298800Y0181000D01*
X0298800Y0191000D02*
X0293200Y0191000D01*
X0293200Y0201000D02*
X0298800Y0201000D01*
X0298800Y0211000D02*
X0293200Y0211000D01*
X0293200Y0221000D02*
X0298800Y0221000D01*
X0298800Y0231000D02*
X0293200Y0231000D01*
X0293200Y0241000D02*
X0298800Y0241000D01*
X0298800Y0251000D02*
X0293200Y0251000D01*
X0293200Y0171000D02*
X0298800Y0171000D01*
X0298800Y0161000D02*
X0293200Y0161000D01*
X0293200Y0151000D02*
X0298800Y0151000D01*
X0298800Y0141000D02*
X0293200Y0141000D01*
X0293200Y0131000D02*
X0298800Y0131000D01*
X0298800Y0121000D02*
X0293200Y0121000D01*
X0293200Y0111000D02*
X0298800Y0111000D01*
X0298800Y0101000D02*
X0293200Y0101000D01*
X0293200Y0091000D02*
X0298800Y0091000D01*
X0298800Y0081000D02*
X0293200Y0081000D01*
X0293200Y0071000D02*
X0298800Y0071000D01*
X0298800Y0061000D02*
X0293200Y0061000D01*
D18*
X0318500Y0063500D03*
X0318500Y0083500D03*
D19*
X0352700Y0044900D02*
X0358700Y0044900D01*
X0358700Y0027100D02*
X0352700Y0027100D01*
X0378300Y0027100D02*
X0384300Y0027100D01*
X0384300Y0044900D02*
X0378300Y0044900D01*
X0261800Y0034900D02*
X0255800Y0034900D01*
X0255800Y0017100D02*
X0261800Y0017100D01*
X0236200Y0017100D02*
X0230200Y0017100D01*
X0230200Y0034900D02*
X0236200Y0034900D01*
X0171800Y0034900D02*
X0165800Y0034900D01*
X0165800Y0017100D02*
X0171800Y0017100D01*
X0146200Y0017100D02*
X0140200Y0017100D01*
X0140200Y0034900D02*
X0146200Y0034900D01*
D20*
X0376000Y0233300D02*
X0376000Y0240700D01*
X0386000Y0240700D02*
X0386000Y0233300D01*
X0396000Y0233300D02*
X0396000Y0240700D01*
X0406000Y0240700D02*
X0406000Y0233300D01*
X0416000Y0233300D02*
X0416000Y0240700D01*
X0426000Y0240700D02*
X0426000Y0233300D01*
X0436000Y0233300D02*
X0436000Y0240700D01*
X0446000Y0240700D02*
X0446000Y0233300D01*
X0456000Y0233300D02*
X0456000Y0240700D01*
X0466000Y0240700D02*
X0466000Y0233300D01*
X0476000Y0233300D02*
X0476000Y0240700D01*
X0486000Y0240700D02*
X0486000Y0233300D01*
X0496000Y0233300D02*
X0496000Y0240700D01*
X0506000Y0240700D02*
X0506000Y0233300D01*
X0506000Y0291300D02*
X0506000Y0298700D01*
X0496000Y0298700D02*
X0496000Y0291300D01*
X0486000Y0291300D02*
X0486000Y0298700D01*
X0476000Y0298700D02*
X0476000Y0291300D01*
X0466000Y0291300D02*
X0466000Y0298700D01*
X0456000Y0298700D02*
X0456000Y0291300D01*
X0446000Y0291300D02*
X0446000Y0298700D01*
X0436000Y0298700D02*
X0436000Y0291300D01*
X0426000Y0291300D02*
X0426000Y0298700D01*
X0416000Y0298700D02*
X0416000Y0291300D01*
X0406000Y0291300D02*
X0406000Y0298700D01*
X0396000Y0298700D02*
X0396000Y0291300D01*
X0386000Y0291300D02*
X0386000Y0298700D01*
X0376000Y0298700D02*
X0376000Y0291300D01*
D21*
X0498228Y0062811D02*
X0503772Y0062811D01*
X0503772Y0051000D02*
X0498228Y0051000D01*
X0498228Y0039189D02*
X0503772Y0039189D01*
D22*
X0501000Y0027378D03*
X0501000Y0074622D03*
D23*
X0551000Y0087339D03*
X0551000Y0104661D03*
D24*
X0071591Y0046354D03*
X0071591Y0041709D03*
X0066709Y0041709D03*
X0066709Y0046354D03*
D25*
X0066709Y0044071D03*
X0071591Y0044071D03*
D26*
X0068000Y0034000D03*
D27*
X0180843Y0340843D03*
X0180843Y0464858D03*
X0476118Y0464858D03*
X0476118Y0340843D03*
D28*
X0221000Y0491000D03*
X0191000Y0481000D03*
X0191000Y0501000D03*
D29*
X0036000Y0146000D03*
X0026000Y0106000D03*
X0046000Y0106000D03*
D30*
X0059125Y0087250D03*
X0069125Y0094750D03*
X0074750Y0082250D03*
X0073500Y0076000D03*
X0086625Y0070375D03*
X0096000Y0076625D03*
X0109125Y0070375D03*
X0109125Y0082875D03*
X0109125Y0089125D03*
X0090375Y0104125D03*
X0061000Y0050375D03*
X0149125Y0186000D03*
X0149125Y0216000D03*
X0135375Y0251000D03*
X0198500Y0276000D03*
X0215375Y0266000D03*
X0211000Y0256625D03*
X0232875Y0270375D03*
X0257875Y0271625D03*
X0229750Y0306000D03*
X0239750Y0341000D03*
X0301000Y0330375D03*
X0323500Y0285375D03*
X0344750Y0296000D03*
X0344750Y0302250D03*
X0363500Y0306625D03*
X0373500Y0322875D03*
X0377875Y0336625D03*
X0378500Y0345375D03*
X0387875Y0364125D03*
X0402250Y0364125D03*
X0367875Y0373500D03*
X0347875Y0395375D03*
X0335375Y0392875D03*
X0362250Y0399750D03*
X0368500Y0412250D03*
X0399125Y0430375D03*
X0418500Y0448500D03*
X0428500Y0426000D03*
X0422875Y0399750D03*
X0480375Y0375375D03*
X0504750Y0356000D03*
X0508500Y0386000D03*
X0534125Y0314125D03*
X0538500Y0304750D03*
X0538500Y0235375D03*
X0507250Y0220375D03*
X0478500Y0219750D03*
X0481000Y0176000D03*
X0496000Y0168500D03*
X0500375Y0179125D03*
X0421625Y0256000D03*
X0439750Y0261625D03*
X0385375Y0219125D03*
X0375375Y0211000D03*
X0366625Y0206625D03*
X0369750Y0201000D03*
X0362250Y0184125D03*
X0349125Y0192875D03*
X0342250Y0206000D03*
X0371625Y0223500D03*
X0356625Y0254750D03*
X0309750Y0243500D03*
X0309125Y0184125D03*
X0281000Y0146625D03*
X0224125Y0174125D03*
X0059125Y0351625D03*
X0071000Y0387250D03*
X0089125Y0406625D03*
X0052875Y0409750D03*
X0188500Y0396000D03*
X0523500Y0088500D03*
D31*
X0513500Y0341000D03*
X0166000Y0291000D03*
X0146000Y0081000D03*
X0106000Y0041000D03*
D32*
X0151000Y0231000D03*
X0106000Y0346000D03*
X0091000Y0371000D03*
X0081000Y0378500D03*
X0071000Y0378500D03*
X0076000Y0361000D03*
X0081000Y0416000D03*
X0078500Y0426000D03*
X0108500Y0421000D03*
X0158500Y0386000D03*
X0216000Y0403500D03*
X0081000Y0471000D03*
X0011000Y0476000D03*
X0393500Y0358500D03*
X0523500Y0266000D03*
X0531000Y0221000D03*
X0556000Y0181000D03*
X0546000Y0316000D03*
X0551000Y0331000D03*
X0526000Y0326000D03*
D33*
X0018500Y0018500D03*
X0553500Y0018500D03*
X0553500Y0498500D03*
X0018500Y0498500D03*
M02*
