%
M48
M72
T01C0.0236
T02C0.0250
T03C0.0320
T04C0.0354
T05C0.0360
T06C0.0400
T07C0.0433
T08C0.0787
T09C0.0866
T10C0.1000
T11C0.1100
T12C0.1102
%
T01
X10600Y4100
X14600Y8100
X15100Y23100
X16600Y29100
X10600Y34600
X9100Y37100
X8100Y37850
X7100Y37850
X7600Y36100
X8100Y41600
X7850Y42600
X10850Y42100
X15850Y38600
X21600Y40350
X8100Y47100
X1100Y47600
X39350Y35850
X51350Y34100
X52600Y32600
X54600Y31600
X55100Y33100
X52350Y26600
X53100Y22100
X55600Y18100
T02
X50725Y22038
X47850Y21975
X48100Y17600
X49600Y16850
X50038Y17913
X53850Y23538
X53850Y30475
X53413Y31413
X50475Y35600
X48038Y37538
X50850Y38600
X42850Y42600
X41850Y44850
X39913Y43038
X36850Y41225
X36225Y39975
X34788Y39538
X33538Y39288
X36788Y37350
X38788Y36413
X40225Y36413
X37850Y34538
X37788Y33663
X37350Y32288
X36350Y30663
X34475Y30225
X34475Y29600
X32350Y28538
X35663Y25475
X37163Y22350
X38538Y21913
X37538Y21100
X36663Y20663
X36975Y20100
X36225Y18413
X34913Y19288
X34225Y20600
X30913Y18413
X28100Y14663
X22413Y17413
X14913Y18600
X14913Y21600
X13538Y25100
X19850Y27600
X21538Y26600
X21100Y25663
X23288Y27038
X25788Y27163
X22975Y30600
X23975Y34100
X30100Y33038
X30975Y24350
X42163Y25600
X43975Y26163
X42288Y39975
X18850Y39600
X8913Y40663
X7100Y38725
X5288Y40975
X5913Y35163
X9038Y10413
X10913Y8913
X10913Y8288
X10913Y7038
X9600Y7663
X8663Y7038
X7350Y7600
X7475Y8225
X6913Y9475
X5913Y8725
X6100Y5038
X52350Y8850
T03
X51600Y9600
X51600Y10600
X48600Y10600
X48600Y9600
X46350Y9850
X46350Y6850
X45600Y5600
X45600Y4600
X43600Y3350
X43600Y6350
X38100Y6100
X35100Y6100
X33600Y7600
X33600Y8600
X34350Y10100
X34350Y11100
X34350Y12100
X34350Y13100
X34350Y14100
X34350Y15100
X31350Y15100
X31350Y14100
X31350Y13100
X31350Y12100
X31350Y11100
X31350Y10100
X31850Y8350
X31850Y6350
X32100Y4350
X31600Y2350
X30600Y2350
X29100Y4350
X27600Y3850
X27600Y2850
X26100Y6100
X26100Y7100
X26100Y8100
X26100Y9100
X26100Y10100
X26100Y11100
X26100Y12100
X26100Y13100
X26100Y14100
X26100Y15100
X26100Y16100
X26100Y17100
X26100Y18100
X26100Y19100
X26100Y20100
X26100Y21100
X26100Y22100
X26100Y23100
X26100Y24100
X26100Y25100
X26600Y27100
X27600Y27100
X27600Y28600
X26600Y28600
X25600Y28600
X24600Y28600
X23600Y28600
X22600Y28600
X22600Y31600
X23600Y31600
X24600Y31600
X25600Y31600
X26600Y31600
X27600Y31600
X28600Y31600
X29600Y31600
X29600Y28600
X28600Y28600
X20100Y25100
X20100Y24100
X20100Y23100
X20100Y22100
X20100Y21100
X20100Y20100
X20100Y19100
X20100Y18100
X20100Y17100
X20100Y16100
X20100Y15100
X20100Y14100
X20100Y13100
X20100Y12100
X20100Y11100
X20100Y10100
X20100Y9100
X20100Y8100
X20100Y7100
X20100Y6100
X21600Y4850
X22600Y4850
X20600Y3350
X20600Y2350
X18850Y2100
X18850Y3100
X17350Y4850
X15350Y7100
X14350Y4850
X12350Y7100
X12350Y11100
X12600Y12600
X12600Y13600
X12600Y14600
X12600Y15600
X13600Y18100
X13600Y19100
X13600Y20100
X13600Y21100
X13600Y22100
X13600Y23100
X13600Y24100
X15100Y24100
X15100Y25100
X13600Y26100
X13600Y27100
X13600Y28100
X13600Y29100
X13600Y30100
X13600Y31100
X13600Y32100
X10600Y32100
X10600Y31100
X10600Y30100
X10600Y29100
X10600Y28100
X10600Y27100
X10600Y26100
X10600Y24100
X10600Y23100
X10600Y22100
X10600Y21100
X10600Y20100
X10600Y19100
X10600Y18100
X7850Y19100
X7850Y20100
X6600Y20100
X6600Y19100
X5100Y18100
X3600Y18600
X2600Y19100
X5100Y21100
X3600Y21600
X2600Y22100
X3600Y25850
X3600Y26850
X3600Y27850
X3600Y28850
X3600Y29850
X3600Y30850
X3600Y31850
X5850Y33100
X6850Y33100
X6600Y31850
X6600Y30850
X6600Y29850
X6600Y28850
X6600Y27850
X6600Y26850
X6600Y25850
X8850Y30100
X8850Y31100
X15600Y43600
X16600Y43600
X18100Y43600
X18100Y44600
X19850Y44850
X20850Y44850
X21297Y46331
X22297Y46331
X23297Y46331
X24297Y46331
X25297Y46331
X26297Y46331
X27297Y46331
X28297Y46331
X29297Y46331
X30297Y46331
X31297Y46331
X32297Y46331
X33297Y46331
X34297Y46331
X35297Y46331
X35350Y44100
X34350Y44100
X33350Y44100
X32350Y44100
X31350Y44100
X30350Y44100
X29350Y44100
X28350Y44100
X27350Y44100
X26350Y44100
X25350Y44100
X24350Y44100
X23350Y44100
X20297Y46331
X15600Y45600
X15600Y48600
X23350Y38100
X24350Y38100
X25350Y38100
X26350Y38100
X27350Y38100
X28350Y38100
X29350Y38100
X30350Y38100
X31350Y38100
X32350Y38100
X33350Y38100
X34350Y38100
X35350Y38100
X36350Y38100
X37350Y38100
X38350Y38100
X39350Y38100
X40350Y38100
X41350Y38100
X42350Y38100
X42350Y44100
X41350Y44100
X40350Y44100
X39350Y44100
X38350Y44100
X37350Y44100
X36350Y44100
X37350Y48600
X34350Y48600
X29600Y36600
X28600Y36600
X37600Y19600
X38600Y19600
X39600Y19600
X40600Y19600
X41600Y19600
X42600Y19600
X43600Y19600
X44600Y19600
X45600Y19600
X46600Y19600
X47600Y19600
X48600Y19600
X49600Y19600
X50600Y19600
X52100Y16600
X52100Y15600
X50600Y13600
X49600Y13600
X48600Y13600
X47600Y13600
X46600Y13600
X45600Y13600
X44600Y13600
X43600Y13600
X42600Y13600
X41600Y13600
X40600Y13600
X39600Y13600
X38600Y13600
X37600Y13600
X55600Y21350
X56600Y21350
X54600Y35100
X54600Y36100
X54600Y37100
X54600Y38100
X54600Y39100
X54600Y40100
X54600Y41100
X54600Y42100
X54600Y43100
X54600Y44100
X53100Y45600
X52100Y45600
X51600Y44100
X51600Y43100
X51600Y42100
X51600Y41100
X51600Y40100
X51600Y39100
X51600Y38100
X51600Y37100
X51600Y36100
X51600Y35100
X15350Y11100
X10600Y11100
X9600Y11100
X8100Y11600
X9600Y12600
X9600Y13600
X9600Y14600
X9600Y15600
X8100Y14600
T04
X50100Y6281
X50100Y5100
X50100Y3919
X55100Y8734
X55100Y10466
T05
X29600Y10100
X29600Y9100
X29600Y8100
X29600Y7100
X29600Y6100
X29600Y11100
X29600Y12100
X29600Y13100
X29600Y14100
X29600Y15100
X29600Y16100
X29600Y17100
X29600Y18100
X29600Y19100
X29600Y20100
X29600Y21100
X29600Y22100
X29600Y23100
X29600Y24100
X29600Y25100
X17100Y25100
X17100Y24100
X17100Y23100
X17100Y22100
X17100Y21100
X17100Y20100
X17100Y19100
X17100Y18100
X17100Y17100
X17100Y16100
X17100Y15100
X17100Y14100
X17100Y13100
X17100Y12100
X17100Y11100
X17100Y10100
X17100Y9100
X17100Y8100
X17100Y7100
X17100Y6100
X1100Y18100
X1100Y19100
X1100Y20100
X4100Y33600
X4100Y34600
X4100Y35600
X4100Y36600
X4100Y37600
X4100Y38600
X4100Y39600
X4100Y40600
X4100Y41600
X4100Y42600
X4100Y43600
X4100Y44600
X4100Y45600
X4100Y46600
X13600Y46600
X13600Y45600
X13600Y44600
X13600Y43600
X13600Y42600
X13600Y41600
X13600Y40600
X13600Y39600
X13600Y38600
X13600Y37600
X13600Y36600
X13600Y35600
X13600Y34600
X13600Y33600
T06
X19100Y48100
X19100Y50100
X22100Y49100
X37600Y29500
X38600Y29500
X39600Y29500
X40600Y29500
X41600Y29500
X42600Y29500
X43600Y29500
X44600Y29500
X45600Y29500
X46600Y29500
X47600Y29500
X48600Y29500
X49600Y29500
X50600Y29500
X38600Y23700
X37600Y23700
X38130Y4490
X38130Y2710
X35570Y2710
X35570Y4490
X25880Y3490
X25880Y1710
X23320Y1710
X23320Y3490
X16880Y3490
X16880Y1710
X14320Y1710
X14320Y3490
X4600Y10600
X2600Y10600
X1100Y7600
X1100Y6600
X1100Y5600
X3600Y14600
X1100Y15600
X1100Y16850
T07
X39600Y23700
X40600Y23700
X41600Y23700
X42600Y23700
X43600Y23700
X44600Y23700
X45600Y23700
X46600Y23700
X47600Y23700
X48600Y23700
X49600Y23700
X50600Y23700
T08
X50100Y7462
X50100Y2738
T09
X6850Y3350
T10
X18084Y34084
X18084Y46486
X47612Y46486
X47612Y34084
T11
X6800Y3400
T12
X1850Y1850
X55350Y1850
X55350Y49850
X1850Y49850
M30
