G75*
%MOIN*%
%OFA0B0*%
%FSLAX25Y25*%
%IPPOS*%
%LPD*%
%AMOC8*
5,1,8,0,0,1.08239X$1,22.5*
%
%ADD10C,0.05200*%
%ADD11OC8,0.05200*%
%ADD12C,0.06300*%
%ADD13OC8,0.06300*%
%ADD14C,0.07400*%
%ADD15R,0.03150X0.03150*%
%ADD16C,0.05600*%
%ADD17C,0.05200*%
%ADD18C,0.06000*%
%ADD19C,0.07400*%
%ADD20C,0.05543*%
%ADD21C,0.11811*%
%ADD22R,0.01378X0.01378*%
%ADD23R,0.01378X0.01181*%
%ADD24C,0.14000*%
%ADD25C,0.10000*%
%ADD26OC8,0.07000*%
%ADD27C,0.01200*%
%ADD28C,0.04500*%
%ADD29R,0.04362X0.04362*%
%ADD30C,0.04362*%
%ADD31C,0.15024*%
D10*
X0093400Y0126000D02*
X0098600Y0126000D01*
X0098600Y0136000D02*
X0093400Y0136000D01*
X0093400Y0146000D02*
X0098600Y0146000D01*
X0098600Y0156000D02*
X0093400Y0156000D01*
X0103400Y0181000D02*
X0108600Y0181000D01*
X0108600Y0191000D02*
X0103400Y0191000D01*
X0103400Y0201000D02*
X0108600Y0201000D01*
X0108600Y0211000D02*
X0103400Y0211000D01*
X0103400Y0221000D02*
X0108600Y0221000D01*
X0108600Y0231000D02*
X0103400Y0231000D01*
X0103400Y0241000D02*
X0108600Y0241000D01*
X0108600Y0261000D02*
X0103400Y0261000D01*
X0103400Y0271000D02*
X0108600Y0271000D01*
X0108600Y0281000D02*
X0103400Y0281000D01*
X0103400Y0291000D02*
X0108600Y0291000D01*
X0108600Y0301000D02*
X0103400Y0301000D01*
X0103400Y0311000D02*
X0108600Y0311000D01*
X0108600Y0321000D02*
X0103400Y0321000D01*
X0133400Y0321000D02*
X0138600Y0321000D01*
X0138600Y0311000D02*
X0133400Y0311000D01*
X0133400Y0301000D02*
X0138600Y0301000D01*
X0138600Y0291000D02*
X0133400Y0291000D01*
X0133400Y0281000D02*
X0138600Y0281000D01*
X0138600Y0271000D02*
X0133400Y0271000D01*
X0133400Y0261000D02*
X0138600Y0261000D01*
X0138600Y0241000D02*
X0133400Y0241000D01*
X0133400Y0231000D02*
X0138600Y0231000D01*
X0138600Y0221000D02*
X0133400Y0221000D01*
X0133400Y0211000D02*
X0138600Y0211000D01*
X0138600Y0201000D02*
X0133400Y0201000D01*
X0133400Y0191000D02*
X0138600Y0191000D01*
X0138600Y0181000D02*
X0133400Y0181000D01*
X0128600Y0156000D02*
X0123400Y0156000D01*
X0123400Y0146000D02*
X0128600Y0146000D01*
X0128600Y0136000D02*
X0123400Y0136000D01*
X0123400Y0126000D02*
X0128600Y0126000D01*
X0198400Y0121000D02*
X0203600Y0121000D01*
X0203600Y0111000D02*
X0198400Y0111000D01*
X0198400Y0101000D02*
X0203600Y0101000D01*
X0203600Y0091000D02*
X0198400Y0091000D01*
X0198400Y0081000D02*
X0203600Y0081000D01*
X0203600Y0071000D02*
X0198400Y0071000D01*
X0198400Y0061000D02*
X0203600Y0061000D01*
X0258400Y0061000D02*
X0263600Y0061000D01*
X0263600Y0071000D02*
X0258400Y0071000D01*
X0258400Y0081000D02*
X0263600Y0081000D01*
X0263600Y0091000D02*
X0258400Y0091000D01*
X0258400Y0101000D02*
X0263600Y0101000D01*
X0263600Y0111000D02*
X0258400Y0111000D01*
X0258400Y0121000D02*
X0263600Y0121000D01*
X0263600Y0131000D02*
X0258400Y0131000D01*
X0258400Y0141000D02*
X0263600Y0141000D01*
X0263600Y0151000D02*
X0258400Y0151000D01*
X0258400Y0161000D02*
X0263600Y0161000D01*
X0263600Y0171000D02*
X0258400Y0171000D01*
X0258400Y0181000D02*
X0263600Y0181000D01*
X0263600Y0191000D02*
X0258400Y0191000D01*
X0258400Y0201000D02*
X0263600Y0201000D01*
X0263600Y0211000D02*
X0258400Y0211000D01*
X0258400Y0221000D02*
X0263600Y0221000D01*
X0263600Y0231000D02*
X0258400Y0231000D01*
X0258400Y0241000D02*
X0263600Y0241000D01*
X0263600Y0251000D02*
X0258400Y0251000D01*
X0256000Y0283400D02*
X0256000Y0288600D01*
X0246000Y0288600D02*
X0246000Y0283400D01*
X0236000Y0283400D02*
X0236000Y0288600D01*
X0226000Y0288600D02*
X0226000Y0283400D01*
X0226000Y0313400D02*
X0226000Y0318600D01*
X0236000Y0318600D02*
X0236000Y0313400D01*
X0246000Y0313400D02*
X0246000Y0318600D01*
X0256000Y0318600D02*
X0256000Y0313400D01*
X0266000Y0313400D02*
X0266000Y0318600D01*
X0276000Y0318600D02*
X0276000Y0313400D01*
X0286000Y0313400D02*
X0286000Y0318600D01*
X0296000Y0318600D02*
X0296000Y0313400D01*
X0296000Y0288600D02*
X0296000Y0283400D01*
X0286000Y0283400D02*
X0286000Y0288600D01*
X0276000Y0288600D02*
X0276000Y0283400D01*
X0266000Y0283400D02*
X0266000Y0288600D01*
X0203600Y0251000D02*
X0198400Y0251000D01*
X0198400Y0241000D02*
X0203600Y0241000D01*
X0203600Y0231000D02*
X0198400Y0231000D01*
X0198400Y0221000D02*
X0203600Y0221000D01*
X0203600Y0211000D02*
X0198400Y0211000D01*
X0198400Y0201000D02*
X0203600Y0201000D01*
X0203600Y0191000D02*
X0198400Y0191000D01*
X0198400Y0181000D02*
X0203600Y0181000D01*
X0203600Y0171000D02*
X0198400Y0171000D01*
X0198400Y0161000D02*
X0203600Y0161000D01*
X0203600Y0151000D02*
X0198400Y0151000D01*
X0198400Y0141000D02*
X0203600Y0141000D01*
X0203600Y0131000D02*
X0198400Y0131000D01*
X0068600Y0258500D02*
X0063400Y0258500D01*
X0063400Y0268500D02*
X0068600Y0268500D01*
X0068600Y0278500D02*
X0063400Y0278500D01*
X0063400Y0288500D02*
X0068600Y0288500D01*
X0068600Y0298500D02*
X0063400Y0298500D01*
X0063400Y0308500D02*
X0068600Y0308500D01*
X0068600Y0318500D02*
X0063400Y0318500D01*
X0038600Y0318500D02*
X0033400Y0318500D01*
X0033400Y0308500D02*
X0038600Y0308500D01*
X0038600Y0298500D02*
X0033400Y0298500D01*
X0033400Y0288500D02*
X0038600Y0288500D01*
X0038600Y0278500D02*
X0033400Y0278500D01*
X0033400Y0268500D02*
X0038600Y0268500D01*
X0038600Y0258500D02*
X0033400Y0258500D01*
X0233500Y0378400D02*
X0233500Y0383600D01*
X0243500Y0383600D02*
X0243500Y0378400D01*
X0253500Y0378400D02*
X0253500Y0383600D01*
X0263500Y0383600D02*
X0263500Y0378400D01*
X0273500Y0378400D02*
X0273500Y0383600D01*
X0283500Y0383600D02*
X0283500Y0378400D01*
X0293500Y0378400D02*
X0293500Y0383600D01*
X0303500Y0383600D02*
X0303500Y0378400D01*
X0313500Y0378400D02*
X0313500Y0383600D01*
X0323500Y0383600D02*
X0323500Y0378400D01*
X0333500Y0378400D02*
X0333500Y0383600D01*
X0343500Y0383600D02*
X0343500Y0378400D01*
X0353500Y0378400D02*
X0353500Y0383600D01*
X0363500Y0383600D02*
X0363500Y0378400D01*
X0373500Y0378400D02*
X0373500Y0383600D01*
X0383500Y0383600D02*
X0383500Y0378400D01*
X0393500Y0378400D02*
X0393500Y0383600D01*
X0403500Y0383600D02*
X0403500Y0378400D01*
X0413500Y0378400D02*
X0413500Y0383600D01*
X0423500Y0383600D02*
X0423500Y0378400D01*
X0423500Y0438400D02*
X0423500Y0443600D01*
X0413500Y0443600D02*
X0413500Y0438400D01*
X0403500Y0438400D02*
X0403500Y0443600D01*
X0393500Y0443600D02*
X0393500Y0438400D01*
X0383500Y0438400D02*
X0383500Y0443600D01*
X0373500Y0443600D02*
X0373500Y0438400D01*
X0363500Y0438400D02*
X0363500Y0443600D01*
X0353500Y0443600D02*
X0353500Y0438400D01*
X0343500Y0438400D02*
X0343500Y0443600D01*
X0333500Y0443600D02*
X0333500Y0438400D01*
X0323500Y0438400D02*
X0323500Y0443600D01*
X0313500Y0443600D02*
X0313500Y0438400D01*
X0303500Y0438400D02*
X0303500Y0443600D01*
X0293500Y0443600D02*
X0293500Y0438400D01*
X0283500Y0438400D02*
X0283500Y0443600D01*
X0273500Y0443600D02*
X0273500Y0438400D01*
X0263500Y0438400D02*
X0263500Y0443600D01*
X0253500Y0443600D02*
X0253500Y0438400D01*
X0243500Y0438400D02*
X0243500Y0443600D01*
X0233500Y0443600D02*
X0233500Y0438400D01*
X0232969Y0460713D02*
X0232969Y0465913D01*
X0222969Y0465913D02*
X0222969Y0460713D01*
X0212969Y0460713D02*
X0212969Y0465913D01*
X0202969Y0465913D02*
X0202969Y0460713D01*
X0242969Y0460713D02*
X0242969Y0465913D01*
X0252969Y0465913D02*
X0252969Y0460713D01*
X0262969Y0460713D02*
X0262969Y0465913D01*
X0272969Y0465913D02*
X0272969Y0460713D01*
X0282969Y0460713D02*
X0282969Y0465913D01*
X0292969Y0465913D02*
X0292969Y0460713D01*
X0302969Y0460713D02*
X0302969Y0465913D01*
X0312969Y0465913D02*
X0312969Y0460713D01*
X0322969Y0460713D02*
X0322969Y0465913D01*
X0332969Y0465913D02*
X0332969Y0460713D01*
X0342969Y0460713D02*
X0342969Y0465913D01*
X0352969Y0465913D02*
X0352969Y0460713D01*
X0513400Y0441000D02*
X0518600Y0441000D01*
X0518600Y0431000D02*
X0513400Y0431000D01*
X0513400Y0421000D02*
X0518600Y0421000D01*
X0518600Y0411000D02*
X0513400Y0411000D01*
X0513400Y0401000D02*
X0518600Y0401000D01*
X0518600Y0391000D02*
X0513400Y0391000D01*
X0513400Y0381000D02*
X0518600Y0381000D01*
X0518600Y0371000D02*
X0513400Y0371000D01*
X0513400Y0361000D02*
X0518600Y0361000D01*
X0518600Y0351000D02*
X0513400Y0351000D01*
X0543400Y0351000D02*
X0548600Y0351000D01*
X0548600Y0361000D02*
X0543400Y0361000D01*
X0543400Y0371000D02*
X0548600Y0371000D01*
X0548600Y0381000D02*
X0543400Y0381000D01*
X0543400Y0391000D02*
X0548600Y0391000D01*
X0548600Y0401000D02*
X0543400Y0401000D01*
X0543400Y0411000D02*
X0548600Y0411000D01*
X0548600Y0421000D02*
X0543400Y0421000D01*
X0543400Y0431000D02*
X0548600Y0431000D01*
X0548600Y0441000D02*
X0543400Y0441000D01*
X0506000Y0198600D02*
X0506000Y0193400D01*
X0496000Y0193400D02*
X0496000Y0198600D01*
X0486000Y0198600D02*
X0486000Y0193400D01*
X0476000Y0193400D02*
X0476000Y0198600D01*
X0466000Y0198600D02*
X0466000Y0193400D01*
X0456000Y0193400D02*
X0456000Y0198600D01*
X0446000Y0198600D02*
X0446000Y0193400D01*
X0436000Y0193400D02*
X0436000Y0198600D01*
X0426000Y0198600D02*
X0426000Y0193400D01*
X0416000Y0193400D02*
X0416000Y0198600D01*
X0406000Y0198600D02*
X0406000Y0193400D01*
X0396000Y0193400D02*
X0396000Y0198600D01*
X0386000Y0198600D02*
X0386000Y0193400D01*
X0376000Y0193400D02*
X0376000Y0198600D01*
X0376000Y0138600D02*
X0376000Y0133400D01*
X0386000Y0133400D02*
X0386000Y0138600D01*
X0396000Y0138600D02*
X0396000Y0133400D01*
X0406000Y0133400D02*
X0406000Y0138600D01*
X0416000Y0138600D02*
X0416000Y0133400D01*
X0426000Y0133400D02*
X0426000Y0138600D01*
X0436000Y0138600D02*
X0436000Y0133400D01*
X0446000Y0133400D02*
X0446000Y0138600D01*
X0456000Y0138600D02*
X0456000Y0133400D01*
X0466000Y0133400D02*
X0466000Y0138600D01*
X0476000Y0138600D02*
X0476000Y0133400D01*
X0486000Y0133400D02*
X0486000Y0138600D01*
X0496000Y0138600D02*
X0496000Y0133400D01*
X0506000Y0133400D02*
X0506000Y0138600D01*
D11*
X0521000Y0156000D03*
X0521000Y0166000D03*
X0556000Y0213500D03*
X0566000Y0213500D03*
X0516000Y0106000D03*
X0516000Y0096000D03*
X0463500Y0098500D03*
X0463500Y0068500D03*
X0456000Y0056000D03*
X0456000Y0046000D03*
X0436000Y0033500D03*
X0436000Y0063500D03*
X0381000Y0061000D03*
X0351000Y0061000D03*
X0336000Y0076000D03*
X0336000Y0086000D03*
X0343500Y0101000D03*
X0343500Y0111000D03*
X0343500Y0121000D03*
X0343500Y0131000D03*
X0343500Y0141000D03*
X0343500Y0151000D03*
X0313500Y0151000D03*
X0313500Y0141000D03*
X0313500Y0131000D03*
X0313500Y0121000D03*
X0313500Y0111000D03*
X0313500Y0101000D03*
X0321000Y0043500D03*
X0316000Y0023500D03*
X0306000Y0023500D03*
X0291000Y0043500D03*
X0276000Y0038500D03*
X0276000Y0028500D03*
X0226000Y0048500D03*
X0216000Y0048500D03*
X0188500Y0031000D03*
X0188500Y0021000D03*
X0173500Y0048500D03*
X0153500Y0071000D03*
X0143500Y0048500D03*
X0123500Y0071000D03*
X0123500Y0111000D03*
X0106000Y0111000D03*
X0096000Y0111000D03*
X0081000Y0116000D03*
X0081000Y0146000D03*
X0051000Y0181000D03*
X0066000Y0191000D03*
X0066000Y0201000D03*
X0051000Y0211000D03*
X0036000Y0216000D03*
X0026000Y0221000D03*
X0026000Y0191000D03*
X0036000Y0186000D03*
X0078500Y0191000D03*
X0078500Y0201000D03*
X0151000Y0241000D03*
X0151000Y0251000D03*
X0088500Y0301000D03*
X0088500Y0311000D03*
X0068500Y0331000D03*
X0058500Y0331000D03*
X0156000Y0436000D03*
X0166000Y0436000D03*
X0181000Y0436000D03*
X0181000Y0446000D03*
X0198500Y0448500D03*
X0208500Y0448500D03*
X0156000Y0456000D03*
X0156000Y0486000D03*
X0286000Y0366000D03*
X0296000Y0366000D03*
X0276000Y0271000D03*
X0266000Y0271000D03*
X0153500Y0111000D03*
X0521000Y0456000D03*
X0531000Y0456000D03*
X0373500Y0486000D03*
X0343500Y0486000D03*
D12*
X0486000Y0106000D03*
X0206000Y0033500D03*
D13*
X0206000Y0023500D03*
X0486000Y0096000D03*
D14*
X0011000Y0076000D03*
X0011000Y0066000D03*
X0011000Y0056000D03*
X0011000Y0156000D03*
X0011000Y0168500D03*
D15*
X0115547Y0036000D03*
X0121453Y0036000D03*
D16*
X0168200Y0061000D02*
X0173800Y0061000D01*
X0173800Y0071000D02*
X0168200Y0071000D01*
X0168200Y0081000D02*
X0173800Y0081000D01*
X0173800Y0091000D02*
X0168200Y0091000D01*
X0168200Y0101000D02*
X0173800Y0101000D01*
X0173800Y0111000D02*
X0168200Y0111000D01*
X0168200Y0121000D02*
X0173800Y0121000D01*
X0173800Y0131000D02*
X0168200Y0131000D01*
X0168200Y0141000D02*
X0173800Y0141000D01*
X0173800Y0151000D02*
X0168200Y0151000D01*
X0168200Y0161000D02*
X0173800Y0161000D01*
X0173800Y0171000D02*
X0168200Y0171000D01*
X0168200Y0181000D02*
X0173800Y0181000D01*
X0173800Y0191000D02*
X0168200Y0191000D01*
X0168200Y0201000D02*
X0173800Y0201000D01*
X0173800Y0211000D02*
X0168200Y0211000D01*
X0168200Y0221000D02*
X0173800Y0221000D01*
X0173800Y0231000D02*
X0168200Y0231000D01*
X0168200Y0241000D02*
X0173800Y0241000D01*
X0173800Y0251000D02*
X0168200Y0251000D01*
X0138800Y0336000D02*
X0133200Y0336000D01*
X0133200Y0346000D02*
X0138800Y0346000D01*
X0138800Y0356000D02*
X0133200Y0356000D01*
X0133200Y0366000D02*
X0138800Y0366000D01*
X0138800Y0376000D02*
X0133200Y0376000D01*
X0133200Y0386000D02*
X0138800Y0386000D01*
X0138800Y0396000D02*
X0133200Y0396000D01*
X0133200Y0406000D02*
X0138800Y0406000D01*
X0138800Y0416000D02*
X0133200Y0416000D01*
X0133200Y0426000D02*
X0138800Y0426000D01*
X0138800Y0436000D02*
X0133200Y0436000D01*
X0133200Y0446000D02*
X0138800Y0446000D01*
X0138800Y0456000D02*
X0133200Y0456000D01*
X0133200Y0466000D02*
X0138800Y0466000D01*
X0043800Y0466000D02*
X0038200Y0466000D01*
X0038200Y0456000D02*
X0043800Y0456000D01*
X0043800Y0446000D02*
X0038200Y0446000D01*
X0038200Y0436000D02*
X0043800Y0436000D01*
X0043800Y0426000D02*
X0038200Y0426000D01*
X0038200Y0416000D02*
X0043800Y0416000D01*
X0043800Y0406000D02*
X0038200Y0406000D01*
X0038200Y0396000D02*
X0043800Y0396000D01*
X0043800Y0386000D02*
X0038200Y0386000D01*
X0038200Y0376000D02*
X0043800Y0376000D01*
X0043800Y0366000D02*
X0038200Y0366000D01*
X0038200Y0356000D02*
X0043800Y0356000D01*
X0043800Y0346000D02*
X0038200Y0346000D01*
X0038200Y0336000D02*
X0043800Y0336000D01*
X0013800Y0201000D02*
X0008200Y0201000D01*
X0008200Y0191000D02*
X0013800Y0191000D01*
X0013800Y0181000D02*
X0008200Y0181000D01*
X0293200Y0181000D02*
X0298800Y0181000D01*
X0298800Y0191000D02*
X0293200Y0191000D01*
X0293200Y0201000D02*
X0298800Y0201000D01*
X0298800Y0211000D02*
X0293200Y0211000D01*
X0293200Y0221000D02*
X0298800Y0221000D01*
X0298800Y0231000D02*
X0293200Y0231000D01*
X0293200Y0241000D02*
X0298800Y0241000D01*
X0298800Y0251000D02*
X0293200Y0251000D01*
X0293200Y0171000D02*
X0298800Y0171000D01*
X0298800Y0161000D02*
X0293200Y0161000D01*
X0293200Y0151000D02*
X0298800Y0151000D01*
X0298800Y0141000D02*
X0293200Y0141000D01*
X0293200Y0131000D02*
X0298800Y0131000D01*
X0298800Y0121000D02*
X0293200Y0121000D01*
X0293200Y0111000D02*
X0298800Y0111000D01*
X0298800Y0101000D02*
X0293200Y0101000D01*
X0293200Y0091000D02*
X0298800Y0091000D01*
X0298800Y0081000D02*
X0293200Y0081000D01*
X0293200Y0071000D02*
X0298800Y0071000D01*
X0298800Y0061000D02*
X0293200Y0061000D01*
D17*
X0318500Y0063500D03*
X0318500Y0083500D03*
D18*
X0352700Y0044900D02*
X0358700Y0044900D01*
X0358700Y0027100D02*
X0352700Y0027100D01*
X0378300Y0027100D02*
X0384300Y0027100D01*
X0384300Y0044900D02*
X0378300Y0044900D01*
X0261800Y0034900D02*
X0255800Y0034900D01*
X0255800Y0017100D02*
X0261800Y0017100D01*
X0236200Y0017100D02*
X0230200Y0017100D01*
X0230200Y0034900D02*
X0236200Y0034900D01*
X0171800Y0034900D02*
X0165800Y0034900D01*
X0165800Y0017100D02*
X0171800Y0017100D01*
X0146200Y0017100D02*
X0140200Y0017100D01*
X0140200Y0034900D02*
X0146200Y0034900D01*
D19*
X0376000Y0233300D02*
X0376000Y0240700D01*
X0386000Y0240700D02*
X0386000Y0233300D01*
X0396000Y0233300D02*
X0396000Y0240700D01*
X0406000Y0240700D02*
X0406000Y0233300D01*
X0416000Y0233300D02*
X0416000Y0240700D01*
X0426000Y0240700D02*
X0426000Y0233300D01*
X0436000Y0233300D02*
X0436000Y0240700D01*
X0446000Y0240700D02*
X0446000Y0233300D01*
X0456000Y0233300D02*
X0456000Y0240700D01*
X0466000Y0240700D02*
X0466000Y0233300D01*
X0476000Y0233300D02*
X0476000Y0240700D01*
X0486000Y0240700D02*
X0486000Y0233300D01*
X0496000Y0233300D02*
X0496000Y0240700D01*
X0506000Y0240700D02*
X0506000Y0233300D01*
X0506000Y0291300D02*
X0506000Y0298700D01*
X0496000Y0298700D02*
X0496000Y0291300D01*
X0486000Y0291300D02*
X0486000Y0298700D01*
X0476000Y0298700D02*
X0476000Y0291300D01*
X0466000Y0291300D02*
X0466000Y0298700D01*
X0456000Y0298700D02*
X0456000Y0291300D01*
X0446000Y0291300D02*
X0446000Y0298700D01*
X0436000Y0298700D02*
X0436000Y0291300D01*
X0426000Y0291300D02*
X0426000Y0298700D01*
X0416000Y0298700D02*
X0416000Y0291300D01*
X0406000Y0291300D02*
X0406000Y0298700D01*
X0396000Y0298700D02*
X0396000Y0291300D01*
X0386000Y0291300D02*
X0386000Y0298700D01*
X0376000Y0298700D02*
X0376000Y0291300D01*
D20*
X0498228Y0062811D02*
X0503772Y0062811D01*
X0503772Y0051000D02*
X0498228Y0051000D01*
X0498228Y0039189D02*
X0503772Y0039189D01*
D21*
X0501000Y0027378D03*
X0501000Y0074622D03*
D22*
X0071591Y0046354D03*
X0071591Y0041709D03*
X0066709Y0041709D03*
X0066709Y0046354D03*
D23*
X0066709Y0044071D03*
X0071591Y0044071D03*
D24*
X0180843Y0340843D03*
X0180843Y0464858D03*
X0476118Y0464858D03*
X0476118Y0340843D03*
D25*
X0221000Y0491000D03*
X0191000Y0481000D03*
X0191000Y0501000D03*
D26*
X0036000Y0146000D03*
X0026000Y0106000D03*
X0046000Y0106000D03*
D27*
X0046000Y0101000D01*
X0011000Y0066000D01*
X0011000Y0076000D02*
X0011000Y0131000D01*
X0016000Y0136000D01*
X0096000Y0136000D01*
X0096000Y0146000D02*
X0081000Y0146000D01*
X0036000Y0146000D01*
X0011000Y0156000D02*
X0096000Y0156000D01*
X0106000Y0136000D02*
X0106000Y0181000D01*
X0110375Y0186000D02*
X0126000Y0170375D01*
X0126000Y0156000D01*
X0136000Y0166000D02*
X0136000Y0091000D01*
X0146000Y0081000D01*
X0153500Y0071000D02*
X0171000Y0071000D01*
X0201000Y0071000D01*
X0201000Y0061000D02*
X0171000Y0061000D01*
X0158500Y0048500D01*
X0143500Y0048500D01*
X0134125Y0048500D01*
X0132563Y0046937D01*
X0109125Y0070375D01*
X0110375Y0070375D01*
X0126000Y0086000D01*
X0126000Y0108500D01*
X0123500Y0111000D01*
X0106000Y0111000D01*
X0101000Y0106000D01*
X0091000Y0106000D01*
X0090375Y0104125D01*
X0063500Y0104125D01*
X0056000Y0111625D01*
X0031625Y0111625D01*
X0026000Y0106000D01*
X0059125Y0087250D02*
X0066625Y0094750D01*
X0069125Y0094750D01*
X0074750Y0082250D02*
X0086625Y0070375D01*
X0096000Y0076625D02*
X0108500Y0089125D01*
X0109125Y0089125D01*
X0109125Y0082875D02*
X0072875Y0046625D01*
X0071625Y0046625D01*
X0071591Y0046354D01*
X0071000Y0046625D01*
X0067250Y0050375D01*
X0061000Y0050375D01*
X0064125Y0046000D02*
X0056625Y0046000D01*
X0056625Y0059125D01*
X0073500Y0076000D01*
X0066625Y0046625D02*
X0065375Y0046625D01*
X0064437Y0045687D01*
X0064125Y0046000D01*
X0064437Y0045687D02*
X0057875Y0039125D01*
X0057875Y0023500D01*
X0102875Y0023500D01*
X0115375Y0036000D01*
X0115547Y0036000D01*
X0121453Y0036000D02*
X0121625Y0036000D01*
X0132563Y0046937D01*
X0143200Y0034900D02*
X0143500Y0034750D01*
X0168500Y0034750D01*
X0168800Y0034900D01*
X0169125Y0034750D01*
X0185375Y0034750D01*
X0188500Y0031625D01*
X0188500Y0031000D01*
X0191000Y0033500D01*
X0206000Y0033500D01*
X0206000Y0023500D02*
X0191000Y0023500D01*
X0188500Y0021000D01*
X0172875Y0021000D01*
X0169125Y0017250D01*
X0168800Y0017100D01*
X0168500Y0017250D01*
X0143500Y0017250D01*
X0143200Y0017100D01*
X0106000Y0041000D02*
X0072299Y0041000D01*
X0071591Y0041709D01*
X0066709Y0046354D02*
X0066625Y0046625D01*
X0096000Y0111000D02*
X0096000Y0116000D01*
X0081000Y0116000D01*
X0096000Y0116000D02*
X0096000Y0126000D01*
X0106000Y0136000D01*
X0136000Y0166000D02*
X0111000Y0191000D01*
X0106000Y0191000D01*
X0110375Y0186000D02*
X0093500Y0186000D01*
X0078500Y0201000D01*
X0073500Y0206000D01*
X0016000Y0206000D01*
X0011000Y0201000D01*
X0011000Y0191000D02*
X0026000Y0191000D01*
X0066000Y0191000D01*
X0066000Y0201000D02*
X0068500Y0201000D01*
X0078500Y0191000D01*
X0086000Y0201000D02*
X0086000Y0236000D01*
X0091000Y0241000D01*
X0106000Y0241000D01*
X0111000Y0246000D01*
X0300375Y0246000D01*
X0313500Y0259125D01*
X0418500Y0259125D01*
X0421625Y0256000D01*
X0432875Y0251625D02*
X0446000Y0238500D01*
X0446000Y0237000D01*
X0456000Y0237000D02*
X0456000Y0251625D01*
X0441625Y0266000D01*
X0215375Y0266000D01*
X0216000Y0261625D02*
X0439750Y0261625D01*
X0432875Y0251625D02*
X0359750Y0251625D01*
X0356625Y0254750D01*
X0338500Y0246625D02*
X0322875Y0231000D01*
X0296000Y0231000D01*
X0261000Y0231000D01*
X0256000Y0226000D02*
X0367875Y0226000D01*
X0369750Y0227875D01*
X0373500Y0227875D01*
X0374125Y0227250D01*
X0427875Y0227250D01*
X0436000Y0235375D01*
X0436000Y0237000D01*
X0416000Y0237000D02*
X0416000Y0238500D01*
X0405375Y0249125D01*
X0337250Y0249125D01*
X0331625Y0243500D01*
X0309750Y0243500D01*
X0298500Y0243500D01*
X0296000Y0241000D01*
X0261000Y0241000D01*
X0261000Y0251000D02*
X0259750Y0252250D01*
X0209125Y0252250D01*
X0205375Y0256000D01*
X0146625Y0256000D01*
X0146313Y0255687D01*
X0151000Y0251000D01*
X0146313Y0255687D02*
X0146000Y0256000D01*
X0111000Y0256000D01*
X0106000Y0261000D01*
X0103500Y0263500D01*
X0041000Y0263500D01*
X0036000Y0258500D01*
X0033500Y0266000D02*
X0036000Y0268500D01*
X0033500Y0266000D02*
X0021000Y0266000D01*
X0016000Y0271000D01*
X0016000Y0381000D01*
X0021000Y0386000D01*
X0041000Y0386000D01*
X0041000Y0396000D02*
X0033500Y0403500D01*
X0033500Y0411000D01*
X0045375Y0411000D01*
X0048500Y0414125D01*
X0048500Y0436000D01*
X0136000Y0436000D01*
X0136000Y0441000D01*
X0161000Y0441000D01*
X0166000Y0436000D01*
X0181000Y0436000D01*
X0183500Y0443500D02*
X0203500Y0443500D01*
X0208500Y0448500D01*
X0203500Y0463500D02*
X0202969Y0463313D01*
X0203500Y0463500D02*
X0210375Y0470375D01*
X0236000Y0470375D01*
X0236312Y0470062D01*
X0236625Y0470375D01*
X0346000Y0470375D01*
X0352875Y0463500D01*
X0352969Y0463313D01*
X0351000Y0448500D02*
X0418500Y0448500D01*
X0528500Y0448500D01*
X0546000Y0431000D01*
X0556000Y0431000D01*
X0561000Y0426000D01*
X0561000Y0237875D01*
X0506625Y0183500D01*
X0418500Y0183500D01*
X0416000Y0186000D01*
X0416000Y0196000D01*
X0411000Y0200375D02*
X0411000Y0186000D01*
X0404750Y0179750D01*
X0297250Y0179750D01*
X0296000Y0181000D01*
X0261000Y0181000D01*
X0256625Y0176000D02*
X0481000Y0176000D01*
X0487250Y0166000D02*
X0500375Y0179125D01*
X0505375Y0186000D02*
X0441000Y0186000D01*
X0436000Y0191000D01*
X0436000Y0196000D01*
X0426000Y0196000D02*
X0398500Y0223500D01*
X0371625Y0223500D01*
X0385375Y0219125D02*
X0297875Y0219125D01*
X0296000Y0221000D01*
X0261000Y0221000D01*
X0256000Y0226000D02*
X0253500Y0228500D01*
X0203500Y0228500D01*
X0201000Y0231000D01*
X0171000Y0231000D01*
X0171000Y0221000D02*
X0201000Y0221000D01*
X0201000Y0211000D02*
X0171000Y0211000D01*
X0161000Y0211000D01*
X0156000Y0206000D01*
X0156000Y0191000D01*
X0161000Y0186000D01*
X0226625Y0186000D01*
X0256625Y0156000D01*
X0483500Y0156000D01*
X0496000Y0168500D01*
X0487250Y0166000D02*
X0256625Y0166000D01*
X0234125Y0188500D01*
X0203500Y0188500D01*
X0201000Y0191000D01*
X0171000Y0191000D01*
X0171000Y0181000D02*
X0166000Y0176000D01*
X0131625Y0176000D01*
X0111625Y0196000D01*
X0091000Y0196000D01*
X0086000Y0201000D01*
X0091000Y0203500D02*
X0096000Y0201000D01*
X0106000Y0201000D01*
X0101000Y0206000D02*
X0096000Y0211000D01*
X0096000Y0216000D01*
X0101000Y0221000D01*
X0106000Y0221000D01*
X0111000Y0216000D02*
X0149125Y0216000D01*
X0151000Y0231000D02*
X0141000Y0236000D01*
X0096000Y0236000D01*
X0091000Y0233500D01*
X0091000Y0203500D01*
X0101000Y0206000D02*
X0111625Y0206000D01*
X0131625Y0186000D01*
X0149125Y0186000D01*
X0171000Y0181000D02*
X0201000Y0181000D01*
X0201000Y0171000D02*
X0171000Y0171000D01*
X0171000Y0161000D02*
X0201000Y0161000D01*
X0201000Y0151000D02*
X0224125Y0174125D01*
X0211000Y0191000D02*
X0241625Y0191000D01*
X0256625Y0176000D01*
X0261000Y0171000D02*
X0296000Y0171000D01*
X0296000Y0161000D02*
X0261000Y0161000D01*
X0261000Y0151000D02*
X0296000Y0151000D01*
X0313500Y0151000D01*
X0313500Y0141000D02*
X0296000Y0141000D01*
X0261000Y0141000D01*
X0261000Y0131000D02*
X0296000Y0131000D01*
X0313500Y0131000D01*
X0313500Y0121000D02*
X0296000Y0121000D01*
X0261000Y0121000D01*
X0261000Y0111000D02*
X0296000Y0111000D01*
X0313500Y0111000D01*
X0313500Y0101000D02*
X0296000Y0101000D01*
X0261000Y0101000D01*
X0261000Y0091000D02*
X0296000Y0091000D01*
X0296000Y0081000D02*
X0261000Y0081000D01*
X0261000Y0071000D02*
X0296000Y0071000D01*
X0306000Y0071000D01*
X0318500Y0083500D01*
X0321000Y0086000D01*
X0336000Y0086000D01*
X0336000Y0076000D02*
X0423500Y0076000D01*
X0436000Y0063500D01*
X0433500Y0066000D01*
X0366000Y0066000D01*
X0338500Y0038500D01*
X0286625Y0038500D01*
X0286313Y0038813D01*
X0276000Y0028500D01*
X0264750Y0017250D01*
X0259125Y0017250D01*
X0258800Y0017100D01*
X0258500Y0017250D01*
X0233500Y0017250D01*
X0233200Y0017100D01*
X0233500Y0034750D02*
X0233200Y0034900D01*
X0233500Y0034750D02*
X0258500Y0034750D01*
X0258800Y0034900D01*
X0259125Y0035375D01*
X0272875Y0035375D01*
X0276000Y0038500D01*
X0286313Y0038813D02*
X0291000Y0043500D01*
X0296000Y0061000D02*
X0316000Y0061000D01*
X0318500Y0063500D01*
X0296000Y0061000D02*
X0261000Y0061000D01*
X0216000Y0048500D02*
X0213500Y0048500D01*
X0208812Y0053187D01*
X0209125Y0053500D01*
X0343500Y0053500D01*
X0351000Y0061000D01*
X0355700Y0044900D02*
X0356000Y0044750D01*
X0381000Y0044750D01*
X0381300Y0044900D01*
X0423500Y0076000D02*
X0388500Y0111000D01*
X0343500Y0111000D01*
X0343500Y0121000D01*
X0343500Y0131000D01*
X0343500Y0141000D01*
X0362250Y0184125D02*
X0309125Y0184125D01*
X0298500Y0188500D02*
X0296000Y0191000D01*
X0261000Y0191000D01*
X0261000Y0201000D02*
X0296000Y0201000D01*
X0369750Y0201000D01*
X0366625Y0206625D02*
X0374750Y0206625D01*
X0385375Y0196000D01*
X0386000Y0196000D01*
X0378500Y0188500D01*
X0298500Y0188500D01*
X0296000Y0211000D02*
X0375375Y0211000D01*
X0376000Y0196000D02*
X0372875Y0192875D01*
X0349125Y0192875D01*
X0342250Y0206000D02*
X0256625Y0206000D01*
X0236625Y0226000D01*
X0111000Y0226000D01*
X0106000Y0231000D01*
X0111000Y0216000D02*
X0106000Y0211000D01*
X0136000Y0241000D02*
X0151000Y0241000D01*
X0135375Y0251000D02*
X0021000Y0251000D01*
X0011000Y0261000D01*
X0011000Y0421000D01*
X0016000Y0426000D01*
X0041000Y0426000D01*
X0041000Y0436000D02*
X0041000Y0446000D01*
X0041000Y0436000D02*
X0048500Y0436000D01*
X0041000Y0456000D02*
X0096000Y0456000D01*
X0116000Y0476000D01*
X0151000Y0476000D01*
X0181000Y0446000D01*
X0183500Y0443500D01*
X0213500Y0406000D02*
X0216000Y0403500D01*
X0213500Y0406000D02*
X0136000Y0406000D01*
X0089750Y0406000D01*
X0089125Y0406625D01*
X0086000Y0411000D02*
X0351000Y0411000D01*
X0356000Y0406000D01*
X0416625Y0406000D01*
X0422875Y0399750D01*
X0425375Y0388500D02*
X0321000Y0388500D01*
X0313500Y0381000D01*
X0303500Y0381000D02*
X0315375Y0369125D01*
X0369750Y0369125D01*
X0371625Y0371000D01*
X0516000Y0371000D01*
X0508500Y0368500D02*
X0516000Y0361000D01*
X0508500Y0368500D02*
X0386000Y0368500D01*
X0384125Y0366625D01*
X0307875Y0366625D01*
X0293500Y0381000D01*
X0335375Y0392875D02*
X0337250Y0391000D01*
X0516000Y0391000D01*
X0521000Y0386000D02*
X0508500Y0386000D01*
X0515375Y0381625D02*
X0432250Y0381625D01*
X0425375Y0388500D01*
X0402250Y0364125D02*
X0395375Y0352250D01*
X0151000Y0352250D01*
X0144750Y0346000D01*
X0136000Y0346000D01*
X0106000Y0346000D01*
X0116000Y0366000D02*
X0121000Y0371000D01*
X0196000Y0371000D01*
X0226000Y0401000D01*
X0361000Y0401000D01*
X0362250Y0399750D01*
X0368500Y0412250D02*
X0507250Y0412250D01*
X0516000Y0421000D01*
X0515375Y0430375D02*
X0399125Y0430375D01*
X0428500Y0426000D02*
X0368500Y0426000D01*
X0353500Y0441000D01*
X0351000Y0448500D02*
X0343500Y0441000D01*
X0333500Y0441000D02*
X0333500Y0462875D01*
X0332969Y0463313D01*
X0323500Y0462875D02*
X0322969Y0463313D01*
X0323500Y0462875D02*
X0323500Y0441000D01*
X0313500Y0441000D02*
X0313500Y0462875D01*
X0312969Y0463313D01*
X0303500Y0462875D02*
X0302969Y0463313D01*
X0303500Y0462875D02*
X0303500Y0441000D01*
X0293500Y0441000D02*
X0287250Y0447250D01*
X0286000Y0448500D01*
X0247875Y0448500D01*
X0233500Y0462875D01*
X0232969Y0463313D01*
X0236312Y0470062D02*
X0242875Y0463500D01*
X0242969Y0463313D01*
X0191000Y0481000D02*
X0369125Y0481000D01*
X0373500Y0485375D01*
X0373500Y0486000D01*
X0385375Y0474125D01*
X0512875Y0474125D01*
X0531000Y0456000D01*
X0546000Y0441000D01*
X0541000Y0426000D02*
X0546000Y0421000D01*
X0541000Y0426000D02*
X0428500Y0426000D01*
X0480375Y0375375D02*
X0478500Y0373500D01*
X0367875Y0373500D01*
X0351000Y0373500D01*
X0343500Y0381000D01*
X0347875Y0395375D02*
X0510375Y0395375D01*
X0516000Y0401000D01*
X0521000Y0386000D02*
X0546000Y0411000D01*
X0556000Y0411000D01*
X0558500Y0408500D01*
X0558500Y0239125D01*
X0505375Y0186000D01*
X0501000Y0191000D02*
X0498500Y0188500D01*
X0463500Y0188500D01*
X0456000Y0196000D01*
X0446000Y0196000D02*
X0455375Y0210375D01*
X0504750Y0210375D01*
X0556000Y0259125D01*
X0556000Y0321000D01*
X0463500Y0321000D01*
X0446000Y0298500D01*
X0446000Y0295000D01*
X0446000Y0293500D01*
X0431000Y0278500D01*
X0224125Y0278500D01*
X0206625Y0296000D01*
X0101625Y0296000D01*
X0099125Y0293500D01*
X0051000Y0293500D01*
X0036000Y0278500D01*
X0036000Y0288500D02*
X0051000Y0303500D01*
X0084750Y0303500D01*
X0087250Y0306000D01*
X0229750Y0306000D01*
X0226000Y0316000D02*
X0221625Y0320375D01*
X0136000Y0320375D01*
X0136000Y0321000D01*
X0126000Y0311000D01*
X0106000Y0311000D01*
X0088500Y0311000D01*
X0073500Y0311000D01*
X0066000Y0318500D01*
X0053500Y0326000D02*
X0370375Y0326000D01*
X0371625Y0327250D01*
X0405375Y0327250D01*
X0436000Y0296625D01*
X0436000Y0295000D01*
X0456000Y0295000D02*
X0456000Y0298500D01*
X0466625Y0314125D01*
X0534125Y0314125D01*
X0536000Y0316000D01*
X0546000Y0316000D01*
X0556000Y0321000D02*
X0556000Y0396000D01*
X0551000Y0401000D01*
X0546000Y0401000D01*
X0516000Y0381000D02*
X0515375Y0381625D01*
X0541000Y0361000D02*
X0521000Y0341000D01*
X0513500Y0341000D01*
X0526625Y0331625D02*
X0389125Y0331625D01*
X0379750Y0341000D01*
X0239750Y0341000D01*
X0246000Y0316000D02*
X0259750Y0302250D01*
X0344750Y0302250D01*
X0344750Y0296000D02*
X0346625Y0296000D01*
X0373500Y0322875D01*
X0377875Y0336625D02*
X0307250Y0336625D01*
X0301000Y0330375D01*
X0299750Y0289750D02*
X0296000Y0286000D01*
X0299750Y0289750D02*
X0371000Y0289750D01*
X0376000Y0294750D01*
X0376000Y0295000D01*
X0365375Y0304750D02*
X0363500Y0306625D01*
X0365375Y0304750D02*
X0397875Y0304750D01*
X0406000Y0296625D01*
X0406000Y0295000D01*
X0396000Y0295000D02*
X0396000Y0288500D01*
X0391000Y0283500D01*
X0325375Y0283500D01*
X0323500Y0285375D01*
X0296000Y0251000D02*
X0261000Y0251000D01*
X0257875Y0271625D02*
X0262250Y0276000D01*
X0438500Y0276000D01*
X0476000Y0238500D01*
X0476000Y0237000D01*
X0486000Y0226000D02*
X0509750Y0226000D01*
X0531000Y0247250D01*
X0531000Y0273500D01*
X0528500Y0276000D01*
X0486000Y0276000D01*
X0476000Y0286000D01*
X0476000Y0295000D01*
X0476000Y0293500D01*
X0466000Y0295000D02*
X0466000Y0301000D01*
X0469750Y0304750D01*
X0538500Y0304750D01*
X0531625Y0285375D02*
X0536000Y0281000D01*
X0536000Y0246000D01*
X0511000Y0221000D01*
X0507875Y0221000D01*
X0507250Y0220375D01*
X0511000Y0207875D02*
X0538500Y0235375D01*
X0531000Y0221000D02*
X0513500Y0203500D01*
X0503500Y0203500D01*
X0501000Y0201000D01*
X0501000Y0191000D01*
X0511000Y0207875D02*
X0472875Y0207875D01*
X0466000Y0196000D01*
X0478500Y0219750D02*
X0479750Y0219750D01*
X0486000Y0226000D01*
X0496000Y0237000D02*
X0496000Y0251000D01*
X0511000Y0266000D01*
X0523500Y0266000D01*
X0531625Y0285375D02*
X0504125Y0285375D01*
X0496000Y0293500D01*
X0496000Y0295000D01*
X0526000Y0326000D02*
X0531000Y0326000D01*
X0536000Y0331000D01*
X0551000Y0331000D01*
X0546000Y0351000D02*
X0526625Y0331625D01*
X0531000Y0356000D02*
X0504750Y0356000D01*
X0531000Y0356000D02*
X0546000Y0371000D01*
X0546000Y0361000D02*
X0541000Y0361000D01*
X0515375Y0430375D02*
X0516000Y0431000D01*
X0393500Y0358500D02*
X0391000Y0356000D01*
X0136000Y0356000D01*
X0141000Y0361000D02*
X0136000Y0366000D01*
X0141000Y0361000D02*
X0384750Y0361000D01*
X0387875Y0364125D01*
X0376625Y0349750D02*
X0378500Y0345375D01*
X0377875Y0347250D01*
X0376625Y0349750D02*
X0152250Y0349750D01*
X0143500Y0341000D01*
X0076000Y0341000D01*
X0061000Y0356000D01*
X0071000Y0356000D01*
X0076000Y0361000D01*
X0068500Y0371000D02*
X0091000Y0371000D01*
X0081000Y0378500D02*
X0071000Y0378500D01*
X0072250Y0386000D02*
X0071000Y0387250D01*
X0072250Y0386000D02*
X0078500Y0386000D01*
X0081000Y0388500D01*
X0081000Y0406000D01*
X0086000Y0411000D01*
X0081000Y0416000D02*
X0081000Y0423500D01*
X0078500Y0426000D01*
X0056000Y0406000D02*
X0058500Y0398500D01*
X0068500Y0371000D01*
X0061000Y0356000D02*
X0041000Y0356000D01*
X0041000Y0366000D02*
X0116000Y0366000D01*
X0136000Y0386000D02*
X0158500Y0386000D01*
X0136000Y0396000D02*
X0188500Y0396000D01*
X0136000Y0426000D02*
X0126000Y0426000D01*
X0121000Y0421000D01*
X0108500Y0421000D01*
X0136000Y0441000D02*
X0136000Y0446000D01*
X0136000Y0456000D01*
X0116000Y0476000D02*
X0126000Y0486000D01*
X0156000Y0486000D01*
X0161000Y0481000D01*
X0191000Y0481000D01*
X0081000Y0471000D02*
X0076000Y0476000D01*
X0011000Y0476000D01*
X0041000Y0466000D02*
X0041000Y0456000D01*
X0052875Y0409750D02*
X0052875Y0407875D01*
X0051000Y0406000D01*
X0056000Y0406000D01*
X0051000Y0406000D02*
X0041000Y0406000D01*
X0059125Y0351625D02*
X0043500Y0336000D01*
X0041000Y0336000D01*
X0053500Y0326000D02*
X0036000Y0308500D01*
X0068500Y0331000D02*
X0073500Y0336000D01*
X0136000Y0336000D01*
X0166000Y0291000D02*
X0171000Y0286000D01*
X0212875Y0286000D01*
X0228500Y0270375D01*
X0232875Y0270375D01*
X0216000Y0261625D02*
X0211000Y0256625D01*
X0201000Y0251000D02*
X0171000Y0251000D01*
X0171000Y0241000D02*
X0201000Y0241000D01*
X0198500Y0276000D02*
X0111000Y0276000D01*
X0106000Y0281000D01*
X0036000Y0216000D02*
X0031000Y0216000D01*
X0026000Y0221000D01*
X0011000Y0181000D02*
X0051000Y0181000D01*
X0153500Y0111000D02*
X0171000Y0111000D01*
X0201000Y0111000D01*
X0201000Y0101000D02*
X0171000Y0101000D01*
X0171000Y0091000D02*
X0201000Y0091000D01*
X0201000Y0081000D02*
X0171000Y0081000D01*
X0201000Y0061000D02*
X0208812Y0053187D01*
X0201000Y0121000D02*
X0171000Y0121000D01*
X0171000Y0131000D02*
X0201000Y0131000D01*
X0201000Y0141000D02*
X0171000Y0141000D01*
X0171000Y0151000D02*
X0201000Y0151000D01*
X0211000Y0191000D02*
X0201000Y0201000D01*
X0171000Y0201000D01*
X0261000Y0211000D02*
X0296000Y0211000D01*
X0338500Y0246625D02*
X0404125Y0246625D01*
X0406000Y0244750D01*
X0406000Y0237000D01*
X0407875Y0203500D02*
X0403500Y0203500D01*
X0396000Y0196000D01*
X0406000Y0196000D02*
X0394125Y0184125D01*
X0362250Y0184125D01*
X0407875Y0203500D02*
X0411000Y0200375D01*
X0486000Y0146000D02*
X0496000Y0136000D01*
X0496000Y0126000D02*
X0506000Y0136000D01*
X0506000Y0151000D01*
X0511000Y0156000D01*
X0521000Y0156000D01*
X0551000Y0156000D01*
X0556000Y0161000D01*
X0556000Y0181000D01*
X0566000Y0191000D01*
X0566000Y0213500D01*
X0556000Y0213500D02*
X0553500Y0211000D01*
X0546000Y0211000D01*
X0541000Y0206000D01*
X0541000Y0176000D01*
X0531000Y0166000D01*
X0521000Y0166000D01*
X0486000Y0146000D02*
X0281625Y0146000D01*
X0281000Y0146625D01*
X0436000Y0033500D02*
X0441625Y0039125D01*
X0501000Y0039125D01*
X0501000Y0039189D01*
X0496000Y0046000D02*
X0501000Y0051000D01*
X0496000Y0046000D02*
X0486000Y0046000D01*
X0471000Y0061000D01*
X0471000Y0091000D01*
X0486000Y0106000D01*
X0506000Y0106000D01*
X0496000Y0116000D01*
X0496000Y0126000D01*
X0506000Y0106000D02*
X0516000Y0106000D01*
X0516000Y0096000D02*
X0523500Y0088500D01*
X0486000Y0046000D02*
X0456000Y0046000D01*
X0496000Y0237000D02*
X0496000Y0237250D01*
X0506000Y0237250D01*
X0506000Y0237000D01*
X0276000Y0286000D02*
X0268500Y0293500D01*
X0248500Y0293500D01*
X0226000Y0316000D01*
X0256000Y0286000D02*
X0266000Y0286000D01*
D28*
X0257875Y0271625D03*
X0232875Y0270375D03*
X0215375Y0266000D03*
X0211000Y0256625D03*
X0198500Y0276000D03*
X0229750Y0306000D03*
X0239750Y0341000D03*
X0301000Y0330375D03*
X0323500Y0285375D03*
X0344750Y0296000D03*
X0344750Y0302250D03*
X0363500Y0306625D03*
X0373500Y0322875D03*
X0377875Y0336625D03*
X0378500Y0345375D03*
X0387875Y0364125D03*
X0402250Y0364125D03*
X0367875Y0373500D03*
X0347875Y0395375D03*
X0335375Y0392875D03*
X0362250Y0399750D03*
X0368500Y0412250D03*
X0399125Y0430375D03*
X0418500Y0448500D03*
X0428500Y0426000D03*
X0422875Y0399750D03*
X0480375Y0375375D03*
X0504750Y0356000D03*
X0508500Y0386000D03*
X0534125Y0314125D03*
X0538500Y0304750D03*
X0538500Y0235375D03*
X0507250Y0220375D03*
X0478500Y0219750D03*
X0481000Y0176000D03*
X0496000Y0168500D03*
X0500375Y0179125D03*
X0421625Y0256000D03*
X0439750Y0261625D03*
X0385375Y0219125D03*
X0375375Y0211000D03*
X0366625Y0206625D03*
X0369750Y0201000D03*
X0362250Y0184125D03*
X0349125Y0192875D03*
X0342250Y0206000D03*
X0371625Y0223500D03*
X0356625Y0254750D03*
X0309750Y0243500D03*
X0309125Y0184125D03*
X0281000Y0146625D03*
X0224125Y0174125D03*
X0149125Y0186000D03*
X0149125Y0216000D03*
X0135375Y0251000D03*
X0059125Y0351625D03*
X0071000Y0387250D03*
X0089125Y0406625D03*
X0052875Y0409750D03*
X0188500Y0396000D03*
X0090375Y0104125D03*
X0109125Y0089125D03*
X0109125Y0082875D03*
X0109125Y0070375D03*
X0096000Y0076625D03*
X0086625Y0070375D03*
X0073500Y0076000D03*
X0074750Y0082250D03*
X0069125Y0094750D03*
X0059125Y0087250D03*
X0061000Y0050375D03*
X0523500Y0088500D03*
D29*
X0513500Y0341000D03*
X0166000Y0291000D03*
X0146000Y0081000D03*
X0106000Y0041000D03*
D30*
X0151000Y0231000D03*
X0106000Y0346000D03*
X0091000Y0371000D03*
X0081000Y0378500D03*
X0071000Y0378500D03*
X0076000Y0361000D03*
X0081000Y0416000D03*
X0078500Y0426000D03*
X0108500Y0421000D03*
X0158500Y0386000D03*
X0216000Y0403500D03*
X0081000Y0471000D03*
X0011000Y0476000D03*
X0393500Y0358500D03*
X0523500Y0266000D03*
X0531000Y0221000D03*
X0556000Y0181000D03*
X0546000Y0316000D03*
X0551000Y0331000D03*
X0526000Y0326000D03*
D31*
X0018500Y0018500D03*
X0553500Y0018500D03*
X0553500Y0498500D03*
X0018500Y0498500D03*
M02*
