%
M48
M72
T01C0.0236
T02C0.0250
T03C0.0315
T04C0.0320
T05C0.0354
T06C0.0360
T07C0.0400
T08C0.0440
T09C0.1000
T10C0.1102
T11C0.1181
%
T01
X10600Y2963
X10600Y4463
X15100Y4713
X16100Y4713
X25600Y6963
X27100Y6963
T02
X22100Y9613
X21600Y15413
X22850Y15463
X24650Y16513
X24900Y19063
X26350Y20713
X28100Y23563
X29550Y24363
X30800Y24363
X32850Y26063
X33450Y27513
X34650Y26813
X37650Y23863
X38000Y21963
X37250Y21513
X36700Y21513
X35950Y21913
X34500Y22113
X34600Y19663
X32550Y19663
X31150Y19363
X30600Y19363
X28000Y16263
X32950Y15163
X35200Y14563
X37600Y20463
X40000Y19413
X40250Y24463
X38850Y26313
X40550Y29013
X41700Y30163
X40250Y31163
X38850Y31763
X40250Y36413
X39450Y36813
X43400Y41013
X43000Y41963
X40250Y44963
X38650Y42863
X37650Y45713
X35250Y42613
X34800Y42163
X32400Y39413
X32000Y38313
X32800Y35313
X32400Y34363
X30550Y31963
X29000Y30413
X28050Y30013
X26850Y28813
X26750Y31563
X26200Y31763
X25650Y31763
X22450Y32963
X20750Y28813
X19050Y27063
X19300Y26563
X18300Y29313
X16400Y26163
X14000Y26363
X12450Y26663
X10550Y24263
X10350Y24813
X9900Y29413
X12350Y31863
X17250Y34863
X22000Y37813
X16600Y43913
X17250Y45613
X18650Y48413
X17350Y48663
X20000Y49213
X30200Y53163
X31800Y51563
X33150Y50163
X35500Y51213
X37200Y51613
X34400Y47063
X34950Y37413
X24300Y24763
X21950Y22113
X20350Y22113
X20950Y23963
X18300Y20713
X17500Y19913
X17300Y18913
X17800Y18413
X16350Y18513
X15050Y19513
X14250Y18913
X13900Y18513
X16500Y21163
X15550Y21963
X20050Y15813
X21750Y17663
X21400Y18413
X22050Y18513
T03
X5600Y28963
X3600Y28963
T04
X4350Y33713
X5350Y33713
X9850Y33963
X10850Y33963
X11850Y33963
X12850Y33963
X13850Y33963
X14850Y33963
X15850Y33963
X16850Y33963
X17850Y33963
X18850Y33963
X19850Y33963
X20850Y33963
X21850Y33963
X22850Y33963
X23850Y33963
X24850Y33963
X25850Y33963
X26850Y33963
X27850Y33963
X28850Y33963
X31600Y34463
X31600Y36463
X29600Y38963
X28600Y38963
X27600Y40713
X27600Y42463
X27600Y43963
X27600Y45713
X27600Y47213
X30600Y47213
X30600Y45713
X30600Y43963
X30600Y42463
X30600Y40713
X32850Y45963
X32850Y47463
X32600Y49463
X33600Y49463
X34600Y49463
X35600Y49463
X36600Y49463
X37600Y49463
X38600Y49463
X39600Y49463
X40600Y49463
X41600Y49463
X41600Y47463
X41600Y46463
X40850Y43963
X39850Y43963
X38850Y43963
X37850Y43963
X36850Y43963
X35850Y43963
X34850Y43963
X35850Y45963
X36850Y45963
X35850Y47463
X35600Y52463
X34600Y52463
X33600Y52463
X32600Y52463
X36600Y52463
X37600Y52463
X38600Y52463
X39600Y52463
X40600Y52463
X41600Y52463
X39850Y45963
X39850Y40963
X38850Y40963
X37850Y40963
X36850Y40963
X35850Y40963
X34850Y40963
X34850Y38713
X35850Y38713
X36850Y38713
X37850Y38713
X38850Y38713
X39850Y38713
X40850Y38713
X40850Y40963
X42600Y41213
X42600Y40213
X42600Y37213
X42600Y36213
X40850Y35713
X39850Y35713
X38850Y35713
X37850Y35713
X36850Y35713
X35850Y35713
X34850Y35713
X34850Y33463
X33850Y33463
X35850Y33463
X36850Y33463
X37850Y33463
X38850Y33463
X39850Y33463
X40850Y33463
X42600Y32463
X42600Y31463
X40850Y30463
X39850Y30463
X38850Y30463
X37850Y30463
X36850Y30463
X35850Y30463
X34850Y30463
X33850Y30463
X33850Y28213
X32850Y28213
X31850Y28213
X30100Y27963
X30100Y28963
X28850Y27963
X27850Y27963
X26850Y27963
X25850Y27963
X24850Y27963
X23850Y27963
X22850Y27963
X21850Y27963
X20850Y27963
X19850Y27963
X18850Y27963
X17850Y27963
X16850Y27963
X15850Y27963
X14850Y27963
X13850Y27963
X12850Y27963
X11850Y27963
X10850Y27963
X9850Y27963
X10350Y22963
X11350Y22963
X12350Y22963
X13350Y22963
X14350Y22963
X15350Y22963
X16350Y22963
X17350Y22963
X18350Y22963
X19350Y22963
X20350Y22963
X21350Y22963
X22350Y22963
X23350Y22963
X25350Y17963
X25350Y16963
X23350Y16963
X22350Y16963
X21350Y16963
X20350Y16963
X19350Y16963
X18350Y16963
X17350Y16963
X16350Y16963
X15350Y16963
X14350Y16963
X13350Y16963
X12350Y16963
X11350Y16963
X10350Y16963
X7850Y16713
X7850Y15713
X7850Y14713
X7850Y13713
X4850Y13713
X4850Y14713
X4850Y15713
X4850Y16713
X2850Y16213
X2850Y15213
X2600Y11463
X3600Y11463
X2100Y19463
X3100Y21463
X3100Y22963
X3100Y24463
X6100Y24463
X6100Y22963
X6100Y21463
X7100Y19463
X12350Y9463
X13100Y6963
X13100Y5963
X15350Y9463
X16350Y6463
X16350Y5463
X17850Y8713
X17850Y10213
X20100Y11963
X20850Y10213
X22100Y10213
X22100Y8713
X20850Y8713
X17750Y13713
X16950Y13713
X14850Y14213
X14850Y13213
X20100Y14963
X25100Y10213
X25100Y8713
X26600Y8713
X26600Y10213
X27100Y12963
X27100Y13963
X29450Y13463
X30250Y13463
X32350Y14963
X32600Y16963
X31600Y16963
X30600Y16963
X29600Y16963
X28600Y16963
X27600Y16963
X27600Y22963
X28600Y22963
X29600Y22963
X30600Y22963
X31600Y22963
X32600Y22963
X33600Y22963
X34600Y22963
X35600Y22963
X36600Y22963
X37600Y22963
X38600Y22963
X39600Y22963
X40600Y22963
X40850Y25213
X39850Y25213
X38850Y25213
X37850Y25213
X36850Y25213
X35850Y25213
X34850Y25213
X33850Y25213
X32850Y25213
X31850Y25213
X34850Y28213
X35850Y28213
X36850Y28213
X37850Y28213
X38850Y28213
X39850Y28213
X40850Y28213
X42600Y27963
X42600Y26963
X42600Y17963
X42600Y16963
X42600Y14963
X41600Y14963
X40600Y14963
X39600Y14963
X39600Y16963
X38600Y16963
X37600Y16963
X36600Y16963
X35600Y16963
X34600Y16963
X33600Y16963
X34600Y14963
X35600Y14963
X36600Y14963
X37600Y14963
X37600Y11963
X36600Y11963
X35600Y11963
X34600Y11963
X34100Y10213
X34100Y8713
X35600Y8713
X35600Y10213
X38600Y10213
X38600Y8713
X40100Y8713
X40100Y10213
X39600Y11963
X40600Y11963
X41600Y11963
X42600Y11963
X43100Y10213
X43100Y8713
X40600Y16963
X32350Y11963
X31100Y10213
X31100Y8713
X29600Y8713
X29600Y10213
X20350Y2463
X19350Y2463
X8600Y4213
X7600Y4213
X24600Y38963
X25600Y38963
X25600Y41213
X24600Y41213
X24600Y42963
X25600Y42963
X22850Y41713
X21850Y41713
X20850Y41713
X19850Y41713
X18850Y41713
X17850Y41713
X16850Y41713
X15850Y41713
X14850Y41713
X13850Y41713
X13850Y44713
X14850Y44713
X15850Y44713
X16850Y44713
X17850Y44713
X18850Y44713
X19850Y44713
X20850Y44713
X21850Y44713
X22850Y44713
X22100Y49963
X21100Y49963
X19600Y49963
X16600Y49963
X15100Y49963
X12100Y49963
X10500Y48713
X9700Y48713
X6100Y44963
X6100Y43963
X5600Y39463
X6600Y39463
X3350Y39463
X2350Y39463
X10600Y42213
X11600Y42213
X11600Y66713
X10600Y66713
X10297Y68444
X11297Y68444
X12297Y68444
X13297Y68444
X14297Y68444
X15297Y68444
X16297Y68444
X17297Y68444
X18297Y68444
X19297Y68444
X20297Y68444
X21297Y68444
X22297Y68444
X23297Y68444
X24297Y68444
X25297Y68444
X16350Y66713
X13350Y66713
T05
X13984Y2463
X15716Y2463
T06
X15850Y25463
X14850Y25463
X13850Y25463
X12850Y25463
X11850Y25463
X10850Y25463
X9850Y25463
X16850Y25463
X17850Y25463
X18850Y25463
X19850Y25463
X20850Y25463
X21850Y25463
X22850Y25463
X23850Y25463
X24850Y25463
X25850Y25463
X26850Y25463
X27850Y25463
X28850Y25463
X28850Y36713
X27850Y36713
X26850Y36713
X25850Y36713
X24850Y36713
X23850Y36713
X22850Y36713
X21850Y36713
X20850Y36713
X19850Y36713
X18850Y36713
X17850Y36713
X16850Y36713
X15850Y36713
X14850Y36713
X13850Y36713
X12850Y36713
X11850Y36713
X10850Y36713
X9850Y36713
X13850Y39713
X14850Y39713
X15850Y39713
X16850Y39713
X17850Y39713
X18850Y39713
X19850Y39713
X20850Y39713
X21850Y39713
X22850Y39713
X22850Y46713
X21850Y46713
X20850Y46713
X19850Y46713
X18850Y46713
X17850Y46713
X16850Y46713
X15850Y46713
X14850Y46713
X13850Y46713
T07
X11630Y46103
X11630Y44323
X9070Y44323
X9070Y46103
X3100Y45463
X3100Y44463
X3100Y43463
X10070Y14603
X10070Y12823
X12630Y12823
X12630Y14603
X22570Y14353
X22570Y12573
X25130Y12573
X25130Y14353
X26100Y5713
X27100Y5713
X28100Y5713
X29100Y5713
X30100Y5713
X31100Y5713
X32100Y5713
X33100Y5713
X34100Y5713
X35100Y5713
X36100Y5713
X37100Y5713
X38100Y5713
X39100Y5713
X39100Y2713
X38100Y2713
X37100Y2713
X36100Y2713
X35100Y2713
X34100Y2713
X33100Y2713
X32100Y2713
X31100Y2713
X30100Y2713
X29100Y2713
X28100Y2713
X27100Y2713
X26100Y2713
X27600Y49463
X27600Y51463
X30600Y50463
T08
X6600Y36963
X2600Y36963
T09
X8084Y56197
X8084Y68599
X37612Y68599
X37612Y56197
T10
X1850Y2213
X43850Y2213
X43850Y68713
X1850Y68713
T11
X3381Y6463
X4582Y4534
X5744Y6463
M30
