G75*
%MOIN*%
%OFA0B0*%
%FSLAX25Y25*%
%IPPOS*%
%LPD*%
%AMOC8*
5,1,8,0,0,1.08239X$1,22.5*
%
%ADD10C,0.06000*%
%ADD11OC8,0.06000*%
%ADD12C,0.06000*%
%ADD13C,0.06800*%
%ADD14OC8,0.07100*%
%ADD15C,0.07100*%
%ADD16R,0.05800X0.10800*%
%ADD17R,0.08674X0.10643*%
%ADD18C,0.04343*%
%ADD19C,0.06400*%
%ADD20C,0.08200*%
%ADD21C,0.14800*%
%ADD22C,0.10800*%
%ADD23R,0.17335X0.17335*%
%ADD24C,0.07400*%
%ADD25OC8,0.07400*%
%ADD26C,0.05950*%
%ADD27C,0.05300*%
%ADD28C,0.05162*%
%ADD29C,0.15824*%
D10*
X0045900Y0137128D02*
X0051100Y0137128D01*
X0051100Y0147128D02*
X0045900Y0147128D01*
X0045900Y0157128D02*
X0051100Y0157128D01*
X0051100Y0167128D02*
X0045900Y0167128D01*
X0075900Y0167128D02*
X0081100Y0167128D01*
X0081100Y0157128D02*
X0075900Y0157128D01*
X0075900Y0147128D02*
X0081100Y0147128D01*
X0081100Y0137128D02*
X0075900Y0137128D01*
X0103500Y0167028D02*
X0103500Y0172228D01*
X0113500Y0172228D02*
X0113500Y0167028D01*
X0123500Y0167028D02*
X0123500Y0172228D01*
X0133500Y0172228D02*
X0133500Y0167028D01*
X0143500Y0167028D02*
X0143500Y0172228D01*
X0153500Y0172228D02*
X0153500Y0167028D01*
X0163500Y0167028D02*
X0163500Y0172228D01*
X0173500Y0172228D02*
X0173500Y0167028D01*
X0183500Y0167028D02*
X0183500Y0172228D01*
X0193500Y0172228D02*
X0193500Y0167028D01*
X0203500Y0167028D02*
X0203500Y0172228D01*
X0213500Y0172228D02*
X0213500Y0167028D01*
X0223500Y0167028D02*
X0223500Y0172228D01*
X0233500Y0172228D02*
X0233500Y0167028D01*
X0276000Y0167028D02*
X0276000Y0172228D01*
X0286000Y0172228D02*
X0286000Y0167028D01*
X0296000Y0167028D02*
X0296000Y0172228D01*
X0306000Y0172228D02*
X0306000Y0167028D01*
X0316000Y0167028D02*
X0316000Y0172228D01*
X0326000Y0172228D02*
X0326000Y0167028D01*
X0336000Y0167028D02*
X0336000Y0172228D01*
X0346000Y0172228D02*
X0346000Y0167028D01*
X0356000Y0167028D02*
X0356000Y0172228D01*
X0366000Y0172228D02*
X0366000Y0167028D01*
X0376000Y0167028D02*
X0376000Y0172228D01*
X0386000Y0172228D02*
X0386000Y0167028D01*
X0396000Y0167028D02*
X0396000Y0172228D01*
X0406000Y0172228D02*
X0406000Y0167028D01*
X0406000Y0227028D02*
X0406000Y0232228D01*
X0396000Y0232228D02*
X0396000Y0227028D01*
X0386000Y0227028D02*
X0386000Y0232228D01*
X0376000Y0232228D02*
X0376000Y0227028D01*
X0366000Y0227028D02*
X0366000Y0232228D01*
X0356000Y0232228D02*
X0356000Y0227028D01*
X0346000Y0227028D02*
X0346000Y0232228D01*
X0336000Y0232228D02*
X0336000Y0227028D01*
X0326000Y0227028D02*
X0326000Y0232228D01*
X0316000Y0232228D02*
X0316000Y0227028D01*
X0306000Y0227028D02*
X0306000Y0232228D01*
X0296000Y0232228D02*
X0296000Y0227028D01*
X0286000Y0227028D02*
X0286000Y0232228D01*
X0276000Y0232228D02*
X0276000Y0227028D01*
X0278500Y0277028D02*
X0278500Y0282228D01*
X0268500Y0282228D02*
X0268500Y0277028D01*
X0258500Y0277028D02*
X0258500Y0282228D01*
X0248500Y0282228D02*
X0248500Y0277028D01*
X0238500Y0277028D02*
X0238500Y0282228D01*
X0228500Y0282228D02*
X0228500Y0277028D01*
X0218500Y0277028D02*
X0218500Y0282228D01*
X0208500Y0282228D02*
X0208500Y0277028D01*
X0198500Y0277028D02*
X0198500Y0282228D01*
X0188500Y0282228D02*
X0188500Y0277028D01*
X0178500Y0277028D02*
X0178500Y0282228D01*
X0168500Y0282228D02*
X0168500Y0277028D01*
X0158500Y0277028D02*
X0158500Y0282228D01*
X0148500Y0282228D02*
X0148500Y0277028D01*
X0138500Y0277028D02*
X0138500Y0282228D01*
X0128500Y0282228D02*
X0128500Y0277028D01*
X0118500Y0277028D02*
X0118500Y0282228D01*
X0108500Y0282228D02*
X0108500Y0277028D01*
X0098500Y0277028D02*
X0098500Y0282228D01*
X0098500Y0337028D02*
X0098500Y0342228D01*
X0108500Y0342228D02*
X0108500Y0337028D01*
X0118500Y0337028D02*
X0118500Y0342228D01*
X0128500Y0342228D02*
X0128500Y0337028D01*
X0138500Y0337028D02*
X0138500Y0342228D01*
X0148500Y0342228D02*
X0148500Y0337028D01*
X0158500Y0337028D02*
X0158500Y0342228D01*
X0168500Y0342228D02*
X0168500Y0337028D01*
X0178500Y0337028D02*
X0178500Y0342228D01*
X0188500Y0342228D02*
X0188500Y0337028D01*
X0198500Y0337028D02*
X0198500Y0342228D01*
X0208500Y0342228D02*
X0208500Y0337028D01*
X0218500Y0337028D02*
X0218500Y0342228D01*
X0228500Y0342228D02*
X0228500Y0337028D01*
X0238500Y0337028D02*
X0238500Y0342228D01*
X0248500Y0342228D02*
X0248500Y0337028D01*
X0258500Y0337028D02*
X0258500Y0342228D01*
X0268500Y0342228D02*
X0268500Y0337028D01*
X0278500Y0337028D02*
X0278500Y0342228D01*
X0288500Y0342228D02*
X0288500Y0337028D01*
X0288500Y0282228D02*
X0288500Y0277028D01*
X0318500Y0279528D02*
X0318500Y0284728D01*
X0328500Y0284728D02*
X0328500Y0279528D01*
X0338500Y0279528D02*
X0338500Y0284728D01*
X0348500Y0284728D02*
X0348500Y0279528D01*
X0358500Y0279528D02*
X0358500Y0284728D01*
X0368500Y0284728D02*
X0368500Y0279528D01*
X0378500Y0279528D02*
X0378500Y0284728D01*
X0388500Y0284728D02*
X0388500Y0279528D01*
X0398500Y0279528D02*
X0398500Y0284728D01*
X0408500Y0284728D02*
X0408500Y0279528D01*
X0408500Y0302028D02*
X0408500Y0307228D01*
X0398500Y0307228D02*
X0398500Y0302028D01*
X0388500Y0302028D02*
X0388500Y0307228D01*
X0378500Y0307228D02*
X0378500Y0302028D01*
X0368500Y0302028D02*
X0368500Y0307228D01*
X0358500Y0307228D02*
X0358500Y0302028D01*
X0348500Y0302028D02*
X0348500Y0307228D01*
X0338500Y0307228D02*
X0338500Y0302028D01*
X0338500Y0332028D02*
X0338500Y0337228D01*
X0348500Y0337228D02*
X0348500Y0332028D01*
X0358500Y0332028D02*
X0358500Y0337228D01*
X0368500Y0337228D02*
X0368500Y0332028D01*
X0378500Y0332028D02*
X0378500Y0337228D01*
X0388500Y0337228D02*
X0388500Y0332028D01*
X0398500Y0332028D02*
X0398500Y0337228D01*
X0408500Y0337228D02*
X0408500Y0332028D01*
X0408500Y0354528D02*
X0408500Y0359728D01*
X0398500Y0359728D02*
X0398500Y0354528D01*
X0388500Y0354528D02*
X0388500Y0359728D01*
X0378500Y0359728D02*
X0378500Y0354528D01*
X0368500Y0354528D02*
X0368500Y0359728D01*
X0358500Y0359728D02*
X0358500Y0354528D01*
X0348500Y0354528D02*
X0348500Y0359728D01*
X0348500Y0384528D02*
X0348500Y0389728D01*
X0358500Y0389728D02*
X0358500Y0384528D01*
X0368500Y0384528D02*
X0368500Y0389728D01*
X0368500Y0407028D02*
X0368500Y0412228D01*
X0358500Y0412228D02*
X0358500Y0407028D01*
X0348500Y0407028D02*
X0348500Y0412228D01*
X0348500Y0437028D02*
X0348500Y0442228D01*
X0358500Y0442228D02*
X0358500Y0437028D01*
X0368500Y0437028D02*
X0368500Y0442228D01*
X0378500Y0442228D02*
X0378500Y0437028D01*
X0388500Y0437028D02*
X0388500Y0442228D01*
X0398500Y0442228D02*
X0398500Y0437028D01*
X0408500Y0437028D02*
X0408500Y0442228D01*
X0408500Y0412228D02*
X0408500Y0407028D01*
X0398500Y0407028D02*
X0398500Y0412228D01*
X0388500Y0412228D02*
X0388500Y0407028D01*
X0378500Y0407028D02*
X0378500Y0412228D01*
X0378500Y0389728D02*
X0378500Y0384528D01*
X0388500Y0384528D02*
X0388500Y0389728D01*
X0398500Y0389728D02*
X0398500Y0384528D01*
X0408500Y0384528D02*
X0408500Y0389728D01*
X0406000Y0492028D02*
X0406000Y0497228D01*
X0396000Y0497228D02*
X0396000Y0492028D01*
X0386000Y0492028D02*
X0386000Y0497228D01*
X0376000Y0497228D02*
X0376000Y0492028D01*
X0366000Y0492028D02*
X0366000Y0497228D01*
X0356000Y0497228D02*
X0356000Y0492028D01*
X0346000Y0492028D02*
X0346000Y0497228D01*
X0336000Y0497228D02*
X0336000Y0492028D01*
X0326000Y0492028D02*
X0326000Y0497228D01*
X0326000Y0522028D02*
X0326000Y0527228D01*
X0336000Y0527228D02*
X0336000Y0522028D01*
X0346000Y0522028D02*
X0346000Y0527228D01*
X0356000Y0527228D02*
X0356000Y0522028D01*
X0366000Y0522028D02*
X0366000Y0527228D01*
X0376000Y0527228D02*
X0376000Y0522028D01*
X0386000Y0522028D02*
X0386000Y0527228D01*
X0396000Y0527228D02*
X0396000Y0522028D01*
X0406000Y0522028D02*
X0406000Y0527228D01*
X0416000Y0527228D02*
X0416000Y0522028D01*
X0416000Y0497228D02*
X0416000Y0492028D01*
X0408500Y0254728D02*
X0408500Y0249528D01*
X0398500Y0249528D02*
X0398500Y0254728D01*
X0388500Y0254728D02*
X0388500Y0249528D01*
X0378500Y0249528D02*
X0378500Y0254728D01*
X0368500Y0254728D02*
X0368500Y0249528D01*
X0358500Y0249528D02*
X0358500Y0254728D01*
X0348500Y0254728D02*
X0348500Y0249528D01*
X0338500Y0249528D02*
X0338500Y0254728D01*
X0328500Y0254728D02*
X0328500Y0249528D01*
X0318500Y0249528D02*
X0318500Y0254728D01*
X0233500Y0232228D02*
X0233500Y0227028D01*
X0223500Y0227028D02*
X0223500Y0232228D01*
X0213500Y0232228D02*
X0213500Y0227028D01*
X0203500Y0227028D02*
X0203500Y0232228D01*
X0193500Y0232228D02*
X0193500Y0227028D01*
X0183500Y0227028D02*
X0183500Y0232228D01*
X0173500Y0232228D02*
X0173500Y0227028D01*
X0163500Y0227028D02*
X0163500Y0232228D01*
X0153500Y0232228D02*
X0153500Y0227028D01*
X0143500Y0227028D02*
X0143500Y0232228D01*
X0133500Y0232228D02*
X0133500Y0227028D01*
X0123500Y0227028D02*
X0123500Y0232228D01*
X0113500Y0232228D02*
X0113500Y0227028D01*
X0103500Y0227028D02*
X0103500Y0232228D01*
X0138500Y0414528D02*
X0138500Y0419728D01*
X0148500Y0419728D02*
X0148500Y0414528D01*
X0158500Y0414528D02*
X0158500Y0419728D01*
X0168500Y0419728D02*
X0168500Y0414528D01*
X0178500Y0414528D02*
X0178500Y0419728D01*
X0188500Y0419728D02*
X0188500Y0414528D01*
X0198500Y0414528D02*
X0198500Y0419728D01*
X0208500Y0419728D02*
X0208500Y0414528D01*
X0218500Y0414528D02*
X0218500Y0419728D01*
X0228500Y0419728D02*
X0228500Y0414528D01*
X0228500Y0444528D02*
X0228500Y0449728D01*
X0218500Y0449728D02*
X0218500Y0444528D01*
X0208500Y0444528D02*
X0208500Y0449728D01*
X0198500Y0449728D02*
X0198500Y0444528D01*
X0188500Y0444528D02*
X0188500Y0449728D01*
X0178500Y0449728D02*
X0178500Y0444528D01*
X0168500Y0444528D02*
X0168500Y0449728D01*
X0158500Y0449728D02*
X0158500Y0444528D01*
X0148500Y0444528D02*
X0148500Y0449728D01*
X0138500Y0449728D02*
X0138500Y0444528D01*
X0142969Y0681841D02*
X0142969Y0687041D01*
X0152969Y0687041D02*
X0152969Y0681841D01*
X0162969Y0681841D02*
X0162969Y0687041D01*
X0172969Y0687041D02*
X0172969Y0681841D01*
X0182969Y0681841D02*
X0182969Y0687041D01*
X0192969Y0687041D02*
X0192969Y0681841D01*
X0202969Y0681841D02*
X0202969Y0687041D01*
X0212969Y0687041D02*
X0212969Y0681841D01*
X0222969Y0681841D02*
X0222969Y0687041D01*
X0232969Y0687041D02*
X0232969Y0681841D01*
X0242969Y0681841D02*
X0242969Y0687041D01*
X0252969Y0687041D02*
X0252969Y0681841D01*
X0132969Y0681841D02*
X0132969Y0687041D01*
X0122969Y0687041D02*
X0122969Y0681841D01*
X0112969Y0681841D02*
X0112969Y0687041D01*
X0102969Y0687041D02*
X0102969Y0681841D01*
D11*
X0106000Y0667128D03*
X0116000Y0667128D03*
X0133500Y0667128D03*
X0163500Y0667128D03*
X0166000Y0499628D03*
X0151000Y0499628D03*
X0121000Y0499628D03*
X0097000Y0487128D03*
X0106000Y0422128D03*
X0116000Y0422128D03*
X0066000Y0394628D03*
X0056000Y0394628D03*
X0033500Y0394628D03*
X0023500Y0394628D03*
X0031000Y0244628D03*
X0031000Y0229628D03*
X0031000Y0214628D03*
X0021000Y0194628D03*
X0028500Y0162128D03*
X0028500Y0152128D03*
X0071000Y0194628D03*
X0061000Y0214628D03*
X0061000Y0229628D03*
X0061000Y0244628D03*
X0148500Y0142128D03*
X0148500Y0132128D03*
X0153500Y0094628D03*
X0163500Y0064628D03*
X0163500Y0054628D03*
X0178500Y0087128D03*
X0178500Y0102128D03*
X0201000Y0119628D03*
X0208500Y0102128D03*
X0221000Y0102128D03*
X0221000Y0087128D03*
X0208500Y0087128D03*
X0177500Y0137128D03*
X0201000Y0149628D03*
X0253500Y0169628D03*
X0253500Y0179628D03*
X0271000Y0139628D03*
X0271000Y0129628D03*
X0266000Y0102128D03*
X0266000Y0087128D03*
X0251000Y0087128D03*
X0251000Y0102128D03*
X0296000Y0102128D03*
X0296000Y0087128D03*
X0311000Y0087128D03*
X0311000Y0102128D03*
X0323500Y0119628D03*
X0341000Y0102128D03*
X0341000Y0087128D03*
X0356000Y0087128D03*
X0356000Y0102128D03*
X0386000Y0102128D03*
X0386000Y0087128D03*
X0401000Y0087128D03*
X0401000Y0102128D03*
X0431000Y0102128D03*
X0431000Y0087128D03*
X0426000Y0169628D03*
X0426000Y0179628D03*
X0426000Y0269628D03*
X0426000Y0279628D03*
X0426000Y0314628D03*
X0426000Y0324628D03*
X0426000Y0362128D03*
X0426000Y0372128D03*
X0426000Y0402128D03*
X0426000Y0412128D03*
X0416000Y0464628D03*
X0416000Y0474628D03*
X0398500Y0459628D03*
X0368500Y0459628D03*
X0358500Y0459628D03*
X0358500Y0474628D03*
X0328500Y0474628D03*
X0328500Y0459628D03*
X0306000Y0457128D03*
X0306000Y0439628D03*
X0306000Y0424628D03*
X0306000Y0407128D03*
X0296000Y0389628D03*
X0286000Y0389628D03*
X0276000Y0407128D03*
X0276000Y0424628D03*
X0276000Y0439628D03*
X0276000Y0457128D03*
X0276000Y0472128D03*
X0306000Y0472128D03*
X0256000Y0429628D03*
X0246000Y0429628D03*
X0246000Y0412128D03*
X0256000Y0412128D03*
X0256000Y0389628D03*
X0246000Y0389628D03*
X0301000Y0289628D03*
X0301000Y0279628D03*
X0323500Y0149628D03*
X0302500Y0134628D03*
X0203500Y0024628D03*
X0193500Y0024628D03*
X0123500Y0094628D03*
X0196000Y0499628D03*
X0211000Y0499628D03*
X0221000Y0499628D03*
D12*
X0316000Y0364628D03*
X0316000Y0344628D03*
X0346000Y0149628D03*
X0356000Y0149628D03*
X0366000Y0149628D03*
X0376000Y0149628D03*
X0396000Y0149628D03*
X0406000Y0149628D03*
X0416000Y0149628D03*
X0426000Y0149628D03*
X0426000Y0119628D03*
X0416000Y0119628D03*
X0406000Y0119628D03*
X0396000Y0119628D03*
X0376000Y0119628D03*
X0366000Y0119628D03*
X0356000Y0119628D03*
X0346000Y0119628D03*
X0294500Y0134628D03*
X0169500Y0137128D03*
X0105000Y0487128D03*
D13*
X0113300Y0461028D02*
X0119300Y0461028D01*
X0119300Y0443228D02*
X0113300Y0443228D01*
X0093700Y0443228D02*
X0087700Y0443228D01*
X0087700Y0461028D02*
X0093700Y0461028D01*
X0034000Y0454628D02*
X0028000Y0454628D01*
X0028000Y0444628D02*
X0034000Y0444628D01*
X0034000Y0434628D02*
X0028000Y0434628D01*
X0097700Y0146028D02*
X0103700Y0146028D01*
X0103700Y0128228D02*
X0097700Y0128228D01*
X0123300Y0128228D02*
X0129300Y0128228D01*
X0129300Y0146028D02*
X0123300Y0146028D01*
X0222700Y0143528D02*
X0228700Y0143528D01*
X0228700Y0125728D02*
X0222700Y0125728D01*
X0248300Y0125728D02*
X0254300Y0125728D01*
X0254300Y0143528D02*
X0248300Y0143528D01*
D14*
X0131000Y0059628D03*
X0026000Y0114628D03*
X0053500Y0337128D03*
X0061000Y0449628D03*
D15*
X0061000Y0439628D03*
X0043500Y0337128D03*
X0036000Y0114628D03*
X0131000Y0069628D03*
D16*
X0140701Y0034471D03*
X0156299Y0034471D03*
D17*
X0166217Y0034471D03*
X0166217Y0012817D03*
X0130783Y0012817D03*
X0130783Y0034471D03*
D18*
X0139839Y0024628D03*
X0157161Y0024628D03*
D19*
X0158500Y0251828D02*
X0158500Y0257428D01*
X0148500Y0257428D02*
X0148500Y0251828D01*
X0138500Y0251828D02*
X0138500Y0257428D01*
X0128500Y0257428D02*
X0128500Y0251828D01*
X0118500Y0251828D02*
X0118500Y0257428D01*
X0108500Y0257428D02*
X0108500Y0251828D01*
X0098500Y0251828D02*
X0098500Y0257428D01*
X0168500Y0257428D02*
X0168500Y0251828D01*
X0178500Y0251828D02*
X0178500Y0257428D01*
X0188500Y0257428D02*
X0188500Y0251828D01*
X0198500Y0251828D02*
X0198500Y0257428D01*
X0208500Y0257428D02*
X0208500Y0251828D01*
X0218500Y0251828D02*
X0218500Y0257428D01*
X0228500Y0257428D02*
X0228500Y0251828D01*
X0238500Y0251828D02*
X0238500Y0257428D01*
X0248500Y0257428D02*
X0248500Y0251828D01*
X0258500Y0251828D02*
X0258500Y0257428D01*
X0268500Y0257428D02*
X0268500Y0251828D01*
X0278500Y0251828D02*
X0278500Y0257428D01*
X0288500Y0257428D02*
X0288500Y0251828D01*
X0288500Y0364328D02*
X0288500Y0369928D01*
X0278500Y0369928D02*
X0278500Y0364328D01*
X0268500Y0364328D02*
X0268500Y0369928D01*
X0258500Y0369928D02*
X0258500Y0364328D01*
X0248500Y0364328D02*
X0248500Y0369928D01*
X0238500Y0369928D02*
X0238500Y0364328D01*
X0228500Y0364328D02*
X0228500Y0369928D01*
X0218500Y0369928D02*
X0218500Y0364328D01*
X0208500Y0364328D02*
X0208500Y0369928D01*
X0198500Y0369928D02*
X0198500Y0364328D01*
X0188500Y0364328D02*
X0188500Y0369928D01*
X0178500Y0369928D02*
X0178500Y0364328D01*
X0168500Y0364328D02*
X0168500Y0369928D01*
X0158500Y0369928D02*
X0158500Y0364328D01*
X0148500Y0364328D02*
X0148500Y0369928D01*
X0138500Y0369928D02*
X0138500Y0364328D01*
X0128500Y0364328D02*
X0128500Y0369928D01*
X0118500Y0369928D02*
X0118500Y0364328D01*
X0108500Y0364328D02*
X0108500Y0369928D01*
X0098500Y0369928D02*
X0098500Y0364328D01*
X0138500Y0394328D02*
X0138500Y0399928D01*
X0148500Y0399928D02*
X0148500Y0394328D01*
X0158500Y0394328D02*
X0158500Y0399928D01*
X0168500Y0399928D02*
X0168500Y0394328D01*
X0178500Y0394328D02*
X0178500Y0399928D01*
X0188500Y0399928D02*
X0188500Y0394328D01*
X0198500Y0394328D02*
X0198500Y0399928D01*
X0208500Y0399928D02*
X0208500Y0394328D01*
X0218500Y0394328D02*
X0218500Y0399928D01*
X0228500Y0399928D02*
X0228500Y0394328D01*
X0228500Y0464328D02*
X0228500Y0469928D01*
X0218500Y0469928D02*
X0218500Y0464328D01*
X0208500Y0464328D02*
X0208500Y0469928D01*
X0198500Y0469928D02*
X0198500Y0464328D01*
X0188500Y0464328D02*
X0188500Y0469928D01*
X0178500Y0469928D02*
X0178500Y0464328D01*
X0168500Y0464328D02*
X0168500Y0469928D01*
X0158500Y0469928D02*
X0158500Y0464328D01*
X0148500Y0464328D02*
X0148500Y0469928D01*
X0138500Y0469928D02*
X0138500Y0464328D01*
D20*
X0261000Y0057128D03*
X0271000Y0057128D03*
X0281000Y0057128D03*
X0291000Y0057128D03*
X0301000Y0057128D03*
X0311000Y0057128D03*
X0321000Y0057128D03*
X0331000Y0057128D03*
X0341000Y0057128D03*
X0351000Y0057128D03*
X0361000Y0057128D03*
X0371000Y0057128D03*
X0381000Y0057128D03*
X0391000Y0057128D03*
X0391000Y0027128D03*
X0381000Y0027128D03*
X0371000Y0027128D03*
X0361000Y0027128D03*
X0351000Y0027128D03*
X0341000Y0027128D03*
X0331000Y0027128D03*
X0321000Y0027128D03*
X0311000Y0027128D03*
X0301000Y0027128D03*
X0291000Y0027128D03*
X0281000Y0027128D03*
X0271000Y0027128D03*
X0261000Y0027128D03*
D21*
X0376118Y0561971D03*
X0376118Y0685987D03*
X0080843Y0685987D03*
X0080843Y0561971D03*
D22*
X0276000Y0514628D03*
X0276000Y0494628D03*
X0306000Y0504628D03*
D23*
X0057437Y0064628D03*
X0045823Y0045337D03*
X0033815Y0064628D03*
D24*
X0026000Y0369628D03*
X0066000Y0369628D03*
D25*
X0076000Y0042128D03*
X0086000Y0042128D03*
D26*
X0056000Y0287054D02*
X0056000Y0292203D01*
X0036000Y0292203D02*
X0036000Y0287054D01*
D27*
X0099000Y0294128D03*
X0123500Y0318628D03*
X0124500Y0266628D03*
X0140000Y0263628D03*
X0164000Y0261628D03*
X0183000Y0293128D03*
X0190500Y0270628D03*
X0193000Y0265628D03*
X0207500Y0288128D03*
X0224500Y0329628D03*
X0256500Y0317628D03*
X0262000Y0317628D03*
X0267500Y0315628D03*
X0280500Y0300128D03*
X0290000Y0304128D03*
X0305500Y0319628D03*
X0324000Y0343628D03*
X0328000Y0353128D03*
X0349500Y0374128D03*
X0324000Y0394128D03*
X0320000Y0383128D03*
X0348000Y0421628D03*
X0352500Y0426128D03*
X0376500Y0457128D03*
X0386500Y0428628D03*
X0402500Y0449628D03*
X0430000Y0419628D03*
X0434000Y0410128D03*
X0402500Y0364128D03*
X0394500Y0368128D03*
X0388500Y0317628D03*
X0402500Y0311628D03*
X0417000Y0301628D03*
X0405500Y0290128D03*
X0388500Y0263128D03*
X0402500Y0244628D03*
X0380000Y0219628D03*
X0372500Y0215128D03*
X0367000Y0215128D03*
X0359500Y0219128D03*
X0345000Y0221128D03*
X0346000Y0196628D03*
X0325500Y0196628D03*
X0311500Y0193628D03*
X0306000Y0193628D03*
X0280000Y0162628D03*
X0263500Y0207128D03*
X0249000Y0190628D03*
X0246500Y0165128D03*
X0228500Y0154628D03*
X0216000Y0154128D03*
X0200500Y0158128D03*
X0217500Y0176628D03*
X0214000Y0184128D03*
X0220500Y0185128D03*
X0219500Y0221128D03*
X0203500Y0221128D03*
X0209500Y0239628D03*
X0183000Y0207128D03*
X0175000Y0199128D03*
X0173000Y0189128D03*
X0178000Y0184128D03*
X0163500Y0185128D03*
X0150500Y0195128D03*
X0142500Y0189128D03*
X0139000Y0185128D03*
X0165000Y0211628D03*
X0155500Y0219628D03*
X0105500Y0242628D03*
X0103500Y0248128D03*
X0172500Y0348628D03*
X0220000Y0378128D03*
X0166000Y0439128D03*
X0172500Y0456128D03*
X0186500Y0484128D03*
X0173500Y0486628D03*
X0200000Y0492128D03*
X0302000Y0531628D03*
X0318000Y0515628D03*
X0331500Y0501628D03*
X0355000Y0512128D03*
X0372000Y0516128D03*
X0344000Y0470628D03*
X0268500Y0288128D03*
X0243000Y0247628D03*
X0281000Y0235628D03*
X0295500Y0243628D03*
X0308000Y0243628D03*
X0328500Y0260628D03*
X0334500Y0275128D03*
X0346500Y0268128D03*
X0376500Y0238628D03*
X0376000Y0204628D03*
X0400000Y0194128D03*
X0352000Y0145628D03*
X0329500Y0151628D03*
X0221000Y0096128D03*
D28*
X0256000Y0069628D03*
X0271000Y0069628D03*
X0161000Y0047128D03*
X0151000Y0047128D03*
X0106000Y0044628D03*
X0106000Y0029628D03*
D29*
X0018500Y0022128D03*
X0438500Y0022128D03*
X0438500Y0687128D03*
X0018500Y0687128D03*
M02*
