G75*
%MOIN*%
%OFA0B0*%
%FSLAX25Y25*%
%IPPOS*%
%LPD*%
%AMOC8*
5,1,8,0,0,1.08239X$1,22.5*
%
%ADD10C,0.05200*%
%ADD11OC8,0.05200*%
%ADD12C,0.05200*%
%ADD13C,0.06000*%
%ADD14OC8,0.06300*%
%ADD15C,0.06300*%
%ADD16R,0.05000X0.10000*%
%ADD17R,0.07874X0.09843*%
%ADD18C,0.05600*%
%ADD19C,0.07400*%
%ADD20C,0.14000*%
%ADD21C,0.10000*%
%ADD22R,0.16535X0.16535*%
%ADD23C,0.06600*%
%ADD24OC8,0.06600*%
%ADD25C,0.05150*%
%ADD26C,0.01200*%
%ADD27C,0.04500*%
%ADD28C,0.02000*%
%ADD29C,0.02400*%
%ADD30C,0.01600*%
%ADD31C,0.04362*%
%ADD32C,0.15024*%
D10*
X0045900Y0137128D02*
X0051100Y0137128D01*
X0051100Y0147128D02*
X0045900Y0147128D01*
X0045900Y0157128D02*
X0051100Y0157128D01*
X0051100Y0167128D02*
X0045900Y0167128D01*
X0075900Y0167128D02*
X0081100Y0167128D01*
X0081100Y0157128D02*
X0075900Y0157128D01*
X0075900Y0147128D02*
X0081100Y0147128D01*
X0081100Y0137128D02*
X0075900Y0137128D01*
X0103500Y0167028D02*
X0103500Y0172228D01*
X0113500Y0172228D02*
X0113500Y0167028D01*
X0123500Y0167028D02*
X0123500Y0172228D01*
X0133500Y0172228D02*
X0133500Y0167028D01*
X0143500Y0167028D02*
X0143500Y0172228D01*
X0153500Y0172228D02*
X0153500Y0167028D01*
X0163500Y0167028D02*
X0163500Y0172228D01*
X0173500Y0172228D02*
X0173500Y0167028D01*
X0183500Y0167028D02*
X0183500Y0172228D01*
X0193500Y0172228D02*
X0193500Y0167028D01*
X0203500Y0167028D02*
X0203500Y0172228D01*
X0213500Y0172228D02*
X0213500Y0167028D01*
X0223500Y0167028D02*
X0223500Y0172228D01*
X0233500Y0172228D02*
X0233500Y0167028D01*
X0276000Y0167028D02*
X0276000Y0172228D01*
X0286000Y0172228D02*
X0286000Y0167028D01*
X0296000Y0167028D02*
X0296000Y0172228D01*
X0306000Y0172228D02*
X0306000Y0167028D01*
X0316000Y0167028D02*
X0316000Y0172228D01*
X0326000Y0172228D02*
X0326000Y0167028D01*
X0336000Y0167028D02*
X0336000Y0172228D01*
X0346000Y0172228D02*
X0346000Y0167028D01*
X0356000Y0167028D02*
X0356000Y0172228D01*
X0366000Y0172228D02*
X0366000Y0167028D01*
X0376000Y0167028D02*
X0376000Y0172228D01*
X0386000Y0172228D02*
X0386000Y0167028D01*
X0396000Y0167028D02*
X0396000Y0172228D01*
X0406000Y0172228D02*
X0406000Y0167028D01*
X0406000Y0227028D02*
X0406000Y0232228D01*
X0396000Y0232228D02*
X0396000Y0227028D01*
X0386000Y0227028D02*
X0386000Y0232228D01*
X0376000Y0232228D02*
X0376000Y0227028D01*
X0366000Y0227028D02*
X0366000Y0232228D01*
X0356000Y0232228D02*
X0356000Y0227028D01*
X0346000Y0227028D02*
X0346000Y0232228D01*
X0336000Y0232228D02*
X0336000Y0227028D01*
X0326000Y0227028D02*
X0326000Y0232228D01*
X0316000Y0232228D02*
X0316000Y0227028D01*
X0306000Y0227028D02*
X0306000Y0232228D01*
X0296000Y0232228D02*
X0296000Y0227028D01*
X0286000Y0227028D02*
X0286000Y0232228D01*
X0276000Y0232228D02*
X0276000Y0227028D01*
X0278500Y0277028D02*
X0278500Y0282228D01*
X0268500Y0282228D02*
X0268500Y0277028D01*
X0258500Y0277028D02*
X0258500Y0282228D01*
X0248500Y0282228D02*
X0248500Y0277028D01*
X0238500Y0277028D02*
X0238500Y0282228D01*
X0228500Y0282228D02*
X0228500Y0277028D01*
X0218500Y0277028D02*
X0218500Y0282228D01*
X0208500Y0282228D02*
X0208500Y0277028D01*
X0198500Y0277028D02*
X0198500Y0282228D01*
X0188500Y0282228D02*
X0188500Y0277028D01*
X0178500Y0277028D02*
X0178500Y0282228D01*
X0168500Y0282228D02*
X0168500Y0277028D01*
X0158500Y0277028D02*
X0158500Y0282228D01*
X0148500Y0282228D02*
X0148500Y0277028D01*
X0138500Y0277028D02*
X0138500Y0282228D01*
X0128500Y0282228D02*
X0128500Y0277028D01*
X0118500Y0277028D02*
X0118500Y0282228D01*
X0108500Y0282228D02*
X0108500Y0277028D01*
X0098500Y0277028D02*
X0098500Y0282228D01*
X0098500Y0337028D02*
X0098500Y0342228D01*
X0108500Y0342228D02*
X0108500Y0337028D01*
X0118500Y0337028D02*
X0118500Y0342228D01*
X0128500Y0342228D02*
X0128500Y0337028D01*
X0138500Y0337028D02*
X0138500Y0342228D01*
X0148500Y0342228D02*
X0148500Y0337028D01*
X0158500Y0337028D02*
X0158500Y0342228D01*
X0168500Y0342228D02*
X0168500Y0337028D01*
X0178500Y0337028D02*
X0178500Y0342228D01*
X0188500Y0342228D02*
X0188500Y0337028D01*
X0198500Y0337028D02*
X0198500Y0342228D01*
X0208500Y0342228D02*
X0208500Y0337028D01*
X0218500Y0337028D02*
X0218500Y0342228D01*
X0228500Y0342228D02*
X0228500Y0337028D01*
X0238500Y0337028D02*
X0238500Y0342228D01*
X0248500Y0342228D02*
X0248500Y0337028D01*
X0258500Y0337028D02*
X0258500Y0342228D01*
X0268500Y0342228D02*
X0268500Y0337028D01*
X0278500Y0337028D02*
X0278500Y0342228D01*
X0288500Y0342228D02*
X0288500Y0337028D01*
X0288500Y0282228D02*
X0288500Y0277028D01*
X0318500Y0279528D02*
X0318500Y0284728D01*
X0328500Y0284728D02*
X0328500Y0279528D01*
X0338500Y0279528D02*
X0338500Y0284728D01*
X0348500Y0284728D02*
X0348500Y0279528D01*
X0358500Y0279528D02*
X0358500Y0284728D01*
X0368500Y0284728D02*
X0368500Y0279528D01*
X0378500Y0279528D02*
X0378500Y0284728D01*
X0388500Y0284728D02*
X0388500Y0279528D01*
X0398500Y0279528D02*
X0398500Y0284728D01*
X0408500Y0284728D02*
X0408500Y0279528D01*
X0408500Y0302028D02*
X0408500Y0307228D01*
X0398500Y0307228D02*
X0398500Y0302028D01*
X0388500Y0302028D02*
X0388500Y0307228D01*
X0378500Y0307228D02*
X0378500Y0302028D01*
X0368500Y0302028D02*
X0368500Y0307228D01*
X0358500Y0307228D02*
X0358500Y0302028D01*
X0348500Y0302028D02*
X0348500Y0307228D01*
X0338500Y0307228D02*
X0338500Y0302028D01*
X0338500Y0332028D02*
X0338500Y0337228D01*
X0348500Y0337228D02*
X0348500Y0332028D01*
X0358500Y0332028D02*
X0358500Y0337228D01*
X0368500Y0337228D02*
X0368500Y0332028D01*
X0378500Y0332028D02*
X0378500Y0337228D01*
X0388500Y0337228D02*
X0388500Y0332028D01*
X0398500Y0332028D02*
X0398500Y0337228D01*
X0408500Y0337228D02*
X0408500Y0332028D01*
X0408500Y0354528D02*
X0408500Y0359728D01*
X0398500Y0359728D02*
X0398500Y0354528D01*
X0388500Y0354528D02*
X0388500Y0359728D01*
X0378500Y0359728D02*
X0378500Y0354528D01*
X0368500Y0354528D02*
X0368500Y0359728D01*
X0358500Y0359728D02*
X0358500Y0354528D01*
X0348500Y0354528D02*
X0348500Y0359728D01*
X0348500Y0384528D02*
X0348500Y0389728D01*
X0358500Y0389728D02*
X0358500Y0384528D01*
X0368500Y0384528D02*
X0368500Y0389728D01*
X0368500Y0407028D02*
X0368500Y0412228D01*
X0358500Y0412228D02*
X0358500Y0407028D01*
X0348500Y0407028D02*
X0348500Y0412228D01*
X0348500Y0437028D02*
X0348500Y0442228D01*
X0358500Y0442228D02*
X0358500Y0437028D01*
X0368500Y0437028D02*
X0368500Y0442228D01*
X0378500Y0442228D02*
X0378500Y0437028D01*
X0388500Y0437028D02*
X0388500Y0442228D01*
X0398500Y0442228D02*
X0398500Y0437028D01*
X0408500Y0437028D02*
X0408500Y0442228D01*
X0408500Y0412228D02*
X0408500Y0407028D01*
X0398500Y0407028D02*
X0398500Y0412228D01*
X0388500Y0412228D02*
X0388500Y0407028D01*
X0378500Y0407028D02*
X0378500Y0412228D01*
X0378500Y0389728D02*
X0378500Y0384528D01*
X0388500Y0384528D02*
X0388500Y0389728D01*
X0398500Y0389728D02*
X0398500Y0384528D01*
X0408500Y0384528D02*
X0408500Y0389728D01*
X0406000Y0492028D02*
X0406000Y0497228D01*
X0396000Y0497228D02*
X0396000Y0492028D01*
X0386000Y0492028D02*
X0386000Y0497228D01*
X0376000Y0497228D02*
X0376000Y0492028D01*
X0366000Y0492028D02*
X0366000Y0497228D01*
X0356000Y0497228D02*
X0356000Y0492028D01*
X0346000Y0492028D02*
X0346000Y0497228D01*
X0336000Y0497228D02*
X0336000Y0492028D01*
X0326000Y0492028D02*
X0326000Y0497228D01*
X0326000Y0522028D02*
X0326000Y0527228D01*
X0336000Y0527228D02*
X0336000Y0522028D01*
X0346000Y0522028D02*
X0346000Y0527228D01*
X0356000Y0527228D02*
X0356000Y0522028D01*
X0366000Y0522028D02*
X0366000Y0527228D01*
X0376000Y0527228D02*
X0376000Y0522028D01*
X0386000Y0522028D02*
X0386000Y0527228D01*
X0396000Y0527228D02*
X0396000Y0522028D01*
X0406000Y0522028D02*
X0406000Y0527228D01*
X0416000Y0527228D02*
X0416000Y0522028D01*
X0416000Y0497228D02*
X0416000Y0492028D01*
X0408500Y0254728D02*
X0408500Y0249528D01*
X0398500Y0249528D02*
X0398500Y0254728D01*
X0388500Y0254728D02*
X0388500Y0249528D01*
X0378500Y0249528D02*
X0378500Y0254728D01*
X0368500Y0254728D02*
X0368500Y0249528D01*
X0358500Y0249528D02*
X0358500Y0254728D01*
X0348500Y0254728D02*
X0348500Y0249528D01*
X0338500Y0249528D02*
X0338500Y0254728D01*
X0328500Y0254728D02*
X0328500Y0249528D01*
X0318500Y0249528D02*
X0318500Y0254728D01*
X0233500Y0232228D02*
X0233500Y0227028D01*
X0223500Y0227028D02*
X0223500Y0232228D01*
X0213500Y0232228D02*
X0213500Y0227028D01*
X0203500Y0227028D02*
X0203500Y0232228D01*
X0193500Y0232228D02*
X0193500Y0227028D01*
X0183500Y0227028D02*
X0183500Y0232228D01*
X0173500Y0232228D02*
X0173500Y0227028D01*
X0163500Y0227028D02*
X0163500Y0232228D01*
X0153500Y0232228D02*
X0153500Y0227028D01*
X0143500Y0227028D02*
X0143500Y0232228D01*
X0133500Y0232228D02*
X0133500Y0227028D01*
X0123500Y0227028D02*
X0123500Y0232228D01*
X0113500Y0232228D02*
X0113500Y0227028D01*
X0103500Y0227028D02*
X0103500Y0232228D01*
X0138500Y0414528D02*
X0138500Y0419728D01*
X0148500Y0419728D02*
X0148500Y0414528D01*
X0158500Y0414528D02*
X0158500Y0419728D01*
X0168500Y0419728D02*
X0168500Y0414528D01*
X0178500Y0414528D02*
X0178500Y0419728D01*
X0188500Y0419728D02*
X0188500Y0414528D01*
X0198500Y0414528D02*
X0198500Y0419728D01*
X0208500Y0419728D02*
X0208500Y0414528D01*
X0218500Y0414528D02*
X0218500Y0419728D01*
X0228500Y0419728D02*
X0228500Y0414528D01*
X0228500Y0444528D02*
X0228500Y0449728D01*
X0218500Y0449728D02*
X0218500Y0444528D01*
X0208500Y0444528D02*
X0208500Y0449728D01*
X0198500Y0449728D02*
X0198500Y0444528D01*
X0188500Y0444528D02*
X0188500Y0449728D01*
X0178500Y0449728D02*
X0178500Y0444528D01*
X0168500Y0444528D02*
X0168500Y0449728D01*
X0158500Y0449728D02*
X0158500Y0444528D01*
X0148500Y0444528D02*
X0148500Y0449728D01*
X0138500Y0449728D02*
X0138500Y0444528D01*
X0142969Y0681841D02*
X0142969Y0687041D01*
X0152969Y0687041D02*
X0152969Y0681841D01*
X0162969Y0681841D02*
X0162969Y0687041D01*
X0172969Y0687041D02*
X0172969Y0681841D01*
X0182969Y0681841D02*
X0182969Y0687041D01*
X0192969Y0687041D02*
X0192969Y0681841D01*
X0202969Y0681841D02*
X0202969Y0687041D01*
X0212969Y0687041D02*
X0212969Y0681841D01*
X0222969Y0681841D02*
X0222969Y0687041D01*
X0232969Y0687041D02*
X0232969Y0681841D01*
X0242969Y0681841D02*
X0242969Y0687041D01*
X0252969Y0687041D02*
X0252969Y0681841D01*
X0132969Y0681841D02*
X0132969Y0687041D01*
X0122969Y0687041D02*
X0122969Y0681841D01*
X0112969Y0681841D02*
X0112969Y0687041D01*
X0102969Y0687041D02*
X0102969Y0681841D01*
D11*
X0106000Y0667128D03*
X0116000Y0667128D03*
X0133500Y0667128D03*
X0163500Y0667128D03*
X0166000Y0499628D03*
X0151000Y0499628D03*
X0121000Y0499628D03*
X0097000Y0487128D03*
X0106000Y0422128D03*
X0116000Y0422128D03*
X0066000Y0394628D03*
X0056000Y0394628D03*
X0033500Y0394628D03*
X0023500Y0394628D03*
X0031000Y0244628D03*
X0031000Y0229628D03*
X0031000Y0214628D03*
X0021000Y0194628D03*
X0028500Y0162128D03*
X0028500Y0152128D03*
X0071000Y0194628D03*
X0061000Y0214628D03*
X0061000Y0229628D03*
X0061000Y0244628D03*
X0148500Y0142128D03*
X0148500Y0132128D03*
X0153500Y0094628D03*
X0163500Y0064628D03*
X0163500Y0054628D03*
X0178500Y0087128D03*
X0178500Y0102128D03*
X0201000Y0119628D03*
X0208500Y0102128D03*
X0221000Y0102128D03*
X0221000Y0087128D03*
X0208500Y0087128D03*
X0177500Y0137128D03*
X0201000Y0149628D03*
X0253500Y0169628D03*
X0253500Y0179628D03*
X0271000Y0139628D03*
X0271000Y0129628D03*
X0266000Y0102128D03*
X0266000Y0087128D03*
X0251000Y0087128D03*
X0251000Y0102128D03*
X0296000Y0102128D03*
X0296000Y0087128D03*
X0311000Y0087128D03*
X0311000Y0102128D03*
X0323500Y0119628D03*
X0341000Y0102128D03*
X0341000Y0087128D03*
X0356000Y0087128D03*
X0356000Y0102128D03*
X0386000Y0102128D03*
X0386000Y0087128D03*
X0401000Y0087128D03*
X0401000Y0102128D03*
X0431000Y0102128D03*
X0431000Y0087128D03*
X0426000Y0169628D03*
X0426000Y0179628D03*
X0426000Y0269628D03*
X0426000Y0279628D03*
X0426000Y0314628D03*
X0426000Y0324628D03*
X0426000Y0362128D03*
X0426000Y0372128D03*
X0426000Y0402128D03*
X0426000Y0412128D03*
X0416000Y0464628D03*
X0416000Y0474628D03*
X0398500Y0459628D03*
X0368500Y0459628D03*
X0358500Y0459628D03*
X0358500Y0474628D03*
X0328500Y0474628D03*
X0328500Y0459628D03*
X0306000Y0457128D03*
X0306000Y0439628D03*
X0306000Y0424628D03*
X0306000Y0407128D03*
X0296000Y0389628D03*
X0286000Y0389628D03*
X0276000Y0407128D03*
X0276000Y0424628D03*
X0276000Y0439628D03*
X0276000Y0457128D03*
X0276000Y0472128D03*
X0306000Y0472128D03*
X0256000Y0429628D03*
X0246000Y0429628D03*
X0246000Y0412128D03*
X0256000Y0412128D03*
X0256000Y0389628D03*
X0246000Y0389628D03*
X0301000Y0289628D03*
X0301000Y0279628D03*
X0323500Y0149628D03*
X0302500Y0134628D03*
X0203500Y0024628D03*
X0193500Y0024628D03*
X0123500Y0094628D03*
X0196000Y0499628D03*
X0211000Y0499628D03*
X0221000Y0499628D03*
D12*
X0316000Y0364628D03*
X0316000Y0344628D03*
X0346000Y0149628D03*
X0356000Y0149628D03*
X0366000Y0149628D03*
X0376000Y0149628D03*
X0396000Y0149628D03*
X0406000Y0149628D03*
X0416000Y0149628D03*
X0426000Y0149628D03*
X0426000Y0119628D03*
X0416000Y0119628D03*
X0406000Y0119628D03*
X0396000Y0119628D03*
X0376000Y0119628D03*
X0366000Y0119628D03*
X0356000Y0119628D03*
X0346000Y0119628D03*
X0294500Y0134628D03*
X0169500Y0137128D03*
X0105000Y0487128D03*
D13*
X0113300Y0461028D02*
X0119300Y0461028D01*
X0119300Y0443228D02*
X0113300Y0443228D01*
X0093700Y0443228D02*
X0087700Y0443228D01*
X0087700Y0461028D02*
X0093700Y0461028D01*
X0034000Y0454628D02*
X0028000Y0454628D01*
X0028000Y0444628D02*
X0034000Y0444628D01*
X0034000Y0434628D02*
X0028000Y0434628D01*
X0097700Y0146028D02*
X0103700Y0146028D01*
X0103700Y0128228D02*
X0097700Y0128228D01*
X0123300Y0128228D02*
X0129300Y0128228D01*
X0129300Y0146028D02*
X0123300Y0146028D01*
X0222700Y0143528D02*
X0228700Y0143528D01*
X0228700Y0125728D02*
X0222700Y0125728D01*
X0248300Y0125728D02*
X0254300Y0125728D01*
X0254300Y0143528D02*
X0248300Y0143528D01*
D14*
X0131000Y0059628D03*
X0026000Y0114628D03*
X0053500Y0337128D03*
X0061000Y0449628D03*
D15*
X0061000Y0439628D03*
X0043500Y0337128D03*
X0036000Y0114628D03*
X0131000Y0069628D03*
D16*
X0140701Y0034471D03*
X0156299Y0034471D03*
D17*
X0166217Y0034471D03*
X0166217Y0012817D03*
X0130783Y0012817D03*
X0130783Y0034471D03*
D18*
X0128500Y0251828D02*
X0128500Y0257428D01*
X0118500Y0257428D02*
X0118500Y0251828D01*
X0108500Y0251828D02*
X0108500Y0257428D01*
X0098500Y0257428D02*
X0098500Y0251828D01*
X0138500Y0251828D02*
X0138500Y0257428D01*
X0148500Y0257428D02*
X0148500Y0251828D01*
X0158500Y0251828D02*
X0158500Y0257428D01*
X0168500Y0257428D02*
X0168500Y0251828D01*
X0178500Y0251828D02*
X0178500Y0257428D01*
X0188500Y0257428D02*
X0188500Y0251828D01*
X0198500Y0251828D02*
X0198500Y0257428D01*
X0208500Y0257428D02*
X0208500Y0251828D01*
X0218500Y0251828D02*
X0218500Y0257428D01*
X0228500Y0257428D02*
X0228500Y0251828D01*
X0238500Y0251828D02*
X0238500Y0257428D01*
X0248500Y0257428D02*
X0248500Y0251828D01*
X0258500Y0251828D02*
X0258500Y0257428D01*
X0268500Y0257428D02*
X0268500Y0251828D01*
X0278500Y0251828D02*
X0278500Y0257428D01*
X0288500Y0257428D02*
X0288500Y0251828D01*
X0288500Y0364328D02*
X0288500Y0369928D01*
X0278500Y0369928D02*
X0278500Y0364328D01*
X0268500Y0364328D02*
X0268500Y0369928D01*
X0258500Y0369928D02*
X0258500Y0364328D01*
X0248500Y0364328D02*
X0248500Y0369928D01*
X0238500Y0369928D02*
X0238500Y0364328D01*
X0228500Y0364328D02*
X0228500Y0369928D01*
X0218500Y0369928D02*
X0218500Y0364328D01*
X0208500Y0364328D02*
X0208500Y0369928D01*
X0198500Y0369928D02*
X0198500Y0364328D01*
X0188500Y0364328D02*
X0188500Y0369928D01*
X0178500Y0369928D02*
X0178500Y0364328D01*
X0168500Y0364328D02*
X0168500Y0369928D01*
X0158500Y0369928D02*
X0158500Y0364328D01*
X0148500Y0364328D02*
X0148500Y0369928D01*
X0138500Y0369928D02*
X0138500Y0364328D01*
X0128500Y0364328D02*
X0128500Y0369928D01*
X0118500Y0369928D02*
X0118500Y0364328D01*
X0108500Y0364328D02*
X0108500Y0369928D01*
X0098500Y0369928D02*
X0098500Y0364328D01*
X0138500Y0394328D02*
X0138500Y0399928D01*
X0148500Y0399928D02*
X0148500Y0394328D01*
X0158500Y0394328D02*
X0158500Y0399928D01*
X0168500Y0399928D02*
X0168500Y0394328D01*
X0178500Y0394328D02*
X0178500Y0399928D01*
X0188500Y0399928D02*
X0188500Y0394328D01*
X0198500Y0394328D02*
X0198500Y0399928D01*
X0208500Y0399928D02*
X0208500Y0394328D01*
X0218500Y0394328D02*
X0218500Y0399928D01*
X0228500Y0399928D02*
X0228500Y0394328D01*
X0228500Y0464328D02*
X0228500Y0469928D01*
X0218500Y0469928D02*
X0218500Y0464328D01*
X0208500Y0464328D02*
X0208500Y0469928D01*
X0198500Y0469928D02*
X0198500Y0464328D01*
X0188500Y0464328D02*
X0188500Y0469928D01*
X0178500Y0469928D02*
X0178500Y0464328D01*
X0168500Y0464328D02*
X0168500Y0469928D01*
X0158500Y0469928D02*
X0158500Y0464328D01*
X0148500Y0464328D02*
X0148500Y0469928D01*
X0138500Y0469928D02*
X0138500Y0464328D01*
D19*
X0261000Y0057128D03*
X0271000Y0057128D03*
X0281000Y0057128D03*
X0291000Y0057128D03*
X0301000Y0057128D03*
X0311000Y0057128D03*
X0321000Y0057128D03*
X0331000Y0057128D03*
X0341000Y0057128D03*
X0351000Y0057128D03*
X0361000Y0057128D03*
X0371000Y0057128D03*
X0381000Y0057128D03*
X0391000Y0057128D03*
X0391000Y0027128D03*
X0381000Y0027128D03*
X0371000Y0027128D03*
X0361000Y0027128D03*
X0351000Y0027128D03*
X0341000Y0027128D03*
X0331000Y0027128D03*
X0321000Y0027128D03*
X0311000Y0027128D03*
X0301000Y0027128D03*
X0291000Y0027128D03*
X0281000Y0027128D03*
X0271000Y0027128D03*
X0261000Y0027128D03*
D20*
X0376118Y0561971D03*
X0376118Y0685987D03*
X0080843Y0685987D03*
X0080843Y0561971D03*
D21*
X0276000Y0514628D03*
X0276000Y0494628D03*
X0306000Y0504628D03*
D22*
X0057437Y0064628D03*
X0045823Y0045337D03*
X0033815Y0064628D03*
D23*
X0026000Y0369628D03*
X0066000Y0369628D03*
D24*
X0076000Y0042128D03*
X0086000Y0042128D03*
D25*
X0056000Y0287054D02*
X0056000Y0292203D01*
X0036000Y0292203D02*
X0036000Y0287054D01*
D26*
X0056000Y0289628D02*
X0075000Y0270628D01*
X0075000Y0182128D01*
X0071500Y0178628D01*
X0071500Y0155628D01*
X0078500Y0148628D01*
X0078500Y0147128D01*
X0057000Y0148128D02*
X0048500Y0156628D01*
X0048500Y0157128D01*
X0048500Y0158628D01*
X0071000Y0181128D01*
X0071000Y0194628D01*
X0071000Y0210628D01*
X0043500Y0238128D01*
X0043500Y0337128D01*
X0037000Y0369628D02*
X0026000Y0369628D01*
X0027000Y0369128D01*
X0027000Y0233628D01*
X0031000Y0229628D01*
X0031000Y0214628D02*
X0031000Y0210628D01*
X0017000Y0196628D01*
X0017000Y0055628D01*
X0037000Y0035628D01*
X0069500Y0035628D01*
X0076000Y0042128D01*
X0057437Y0064628D02*
X0057000Y0064628D01*
X0057000Y0148128D01*
X0048500Y0148128D02*
X0048500Y0147128D01*
X0048500Y0148128D02*
X0021000Y0175628D01*
X0021000Y0194628D01*
X0088000Y0174628D02*
X0088000Y0388128D01*
X0134500Y0434628D01*
X0134500Y0451628D01*
X0144750Y0461878D01*
X0144000Y0462628D01*
X0144000Y0470628D01*
X0117000Y0497628D01*
X0117000Y0501628D01*
X0163500Y0548128D01*
X0163500Y0667128D01*
X0139500Y0677628D02*
X0133000Y0684128D01*
X0132969Y0684441D01*
X0139500Y0677628D02*
X0211500Y0677628D01*
X0360000Y0529128D01*
X0360000Y0522128D01*
X0366000Y0516128D01*
X0366000Y0494628D01*
X0370000Y0499128D02*
X0368000Y0501128D01*
X0368000Y0517128D01*
X0366000Y0519128D01*
X0366000Y0524628D01*
X0367500Y0531628D02*
X0377500Y0531628D01*
X0382000Y0527128D01*
X0382000Y0498628D01*
X0386000Y0494628D01*
X0380000Y0492128D02*
X0380000Y0520628D01*
X0376000Y0524628D01*
X0375500Y0533628D02*
X0385500Y0533628D01*
X0392000Y0527128D01*
X0392000Y0498628D01*
X0396000Y0494628D01*
X0402000Y0498628D02*
X0406000Y0494628D01*
X0402000Y0498628D02*
X0402000Y0527128D01*
X0393500Y0535628D01*
X0383500Y0535628D01*
X0235000Y0684128D01*
X0233000Y0684128D01*
X0232969Y0684441D01*
X0225000Y0684128D02*
X0375500Y0533628D01*
X0367500Y0531628D02*
X0215000Y0684128D01*
X0213000Y0684128D01*
X0212969Y0684441D01*
X0222969Y0684441D02*
X0223000Y0684128D01*
X0225000Y0684128D01*
X0234000Y0531628D02*
X0186500Y0484128D01*
X0183000Y0477128D02*
X0173500Y0486628D01*
X0166000Y0488628D02*
X0166000Y0499628D01*
X0166000Y0488628D02*
X0184000Y0470628D01*
X0184000Y0460128D01*
X0194000Y0450128D01*
X0194000Y0390628D01*
X0214000Y0370628D01*
X0214000Y0362628D01*
X0216500Y0360128D01*
X0251500Y0360128D01*
X0251500Y0359628D01*
X0258500Y0352628D01*
X0258500Y0339628D01*
X0248500Y0339628D02*
X0241500Y0346628D01*
X0220000Y0346628D01*
X0204000Y0362628D01*
X0204000Y0370628D01*
X0184000Y0390628D01*
X0184000Y0450128D01*
X0174000Y0460128D01*
X0146500Y0460128D01*
X0144750Y0461878D01*
X0162500Y0449628D02*
X0162500Y0441128D01*
X0138500Y0417128D01*
X0148500Y0417128D02*
X0148500Y0418628D01*
X0166000Y0436128D01*
X0166000Y0439128D01*
X0162500Y0449628D02*
X0169000Y0456128D01*
X0172500Y0456128D01*
X0178500Y0447128D02*
X0178500Y0445628D01*
X0152500Y0419628D01*
X0152500Y0412628D01*
X0144000Y0404128D01*
X0136500Y0404128D01*
X0103000Y0370628D01*
X0103000Y0352628D01*
X0090000Y0339628D01*
X0090000Y0191628D01*
X0109500Y0172128D01*
X0109500Y0165128D01*
X0124000Y0150628D01*
X0134000Y0150628D01*
X0148500Y0136128D01*
X0164500Y0136128D01*
X0198500Y0102128D01*
X0208500Y0102128D01*
X0211500Y0102128D01*
X0230500Y0121128D01*
X0314000Y0121128D01*
X0331500Y0138628D01*
X0405000Y0138628D01*
X0416000Y0149628D01*
X0406000Y0149628D02*
X0402000Y0153628D01*
X0364000Y0153628D01*
X0360000Y0149628D01*
X0356000Y0149628D01*
X0352000Y0145628D02*
X0321500Y0145628D01*
X0319000Y0148128D01*
X0216500Y0148128D01*
X0199500Y0165128D01*
X0199500Y0182128D01*
X0178500Y0203128D01*
X0141500Y0203128D01*
X0119500Y0225128D01*
X0119500Y0234128D01*
X0122000Y0236628D01*
X0135000Y0236628D01*
X0142000Y0229628D01*
X0143500Y0229628D01*
X0153500Y0229628D02*
X0155000Y0229628D01*
X0169000Y0243628D01*
X0235000Y0243628D01*
X0237000Y0241628D01*
X0273500Y0241628D01*
X0275500Y0243628D01*
X0295500Y0243628D01*
X0292000Y0241628D02*
X0297000Y0236628D01*
X0312000Y0236628D01*
X0312000Y0225128D01*
X0326000Y0211128D01*
X0368500Y0211128D01*
X0372500Y0215128D01*
X0367000Y0215128D02*
X0326000Y0215128D01*
X0316000Y0225128D01*
X0316000Y0229628D01*
X0320000Y0234128D02*
X0320000Y0224128D01*
X0327000Y0217128D01*
X0346500Y0217128D01*
X0350000Y0220628D01*
X0350000Y0234128D01*
X0347500Y0236628D01*
X0343000Y0236628D01*
X0336000Y0229628D01*
X0332000Y0232128D02*
X0332000Y0225128D01*
X0334500Y0222628D01*
X0337500Y0222628D01*
X0344500Y0229628D01*
X0346000Y0229628D01*
X0352000Y0225128D02*
X0358000Y0219128D01*
X0359500Y0219128D01*
X0362000Y0225128D02*
X0367500Y0219628D01*
X0380000Y0219628D01*
X0384000Y0218128D02*
X0384000Y0221628D01*
X0376000Y0229628D01*
X0375500Y0229628D01*
X0368500Y0236628D01*
X0365500Y0236628D01*
X0354500Y0247628D01*
X0354500Y0254628D01*
X0350000Y0259128D01*
X0347000Y0259128D01*
X0340000Y0252128D01*
X0338500Y0252128D01*
X0334500Y0247628D02*
X0334500Y0256628D01*
X0339000Y0261128D01*
X0351000Y0261128D01*
X0353000Y0259128D01*
X0410000Y0259128D01*
X0412500Y0256628D01*
X0412500Y0187128D01*
X0424000Y0175628D01*
X0426000Y0175628D01*
X0430000Y0171628D01*
X0430000Y0147628D01*
X0412000Y0129628D01*
X0412000Y0119628D01*
X0408000Y0115628D01*
X0405500Y0115628D01*
X0386000Y0096128D01*
X0221000Y0096128D01*
X0210500Y0098128D02*
X0220500Y0108128D01*
X0304000Y0108128D01*
X0322500Y0126628D01*
X0395000Y0126628D01*
X0402000Y0119628D01*
X0406000Y0119628D01*
X0415000Y0119628D02*
X0401500Y0106128D01*
X0399000Y0106128D01*
X0384000Y0091128D01*
X0300000Y0091128D01*
X0296000Y0087128D01*
X0311000Y0087128D02*
X0335000Y0087128D01*
X0349000Y0073128D01*
X0381000Y0073128D01*
X0381000Y0057128D01*
X0381000Y0073128D02*
X0401000Y0093128D01*
X0401000Y0102128D01*
X0415000Y0119628D02*
X0416000Y0119628D01*
X0370500Y0155628D02*
X0384500Y0169628D01*
X0386000Y0169628D01*
X0376000Y0169628D02*
X0376000Y0170128D01*
X0400000Y0194128D01*
X0396000Y0208128D02*
X0360000Y0172128D01*
X0360000Y0165128D01*
X0357500Y0162628D01*
X0294500Y0162628D01*
X0290000Y0167128D01*
X0290000Y0174128D01*
X0273500Y0190628D01*
X0249000Y0190628D01*
X0247500Y0194628D02*
X0272500Y0194628D01*
X0296000Y0171128D01*
X0296000Y0169628D01*
X0286000Y0169628D02*
X0284500Y0169628D01*
X0277500Y0176628D01*
X0256500Y0176628D01*
X0255500Y0175628D01*
X0236000Y0175628D01*
X0235000Y0176628D01*
X0217500Y0176628D01*
X0213500Y0171128D02*
X0173000Y0211628D01*
X0165000Y0211628D01*
X0169500Y0201128D02*
X0140500Y0201128D01*
X0113500Y0228128D01*
X0113500Y0229628D01*
X0113500Y0258628D01*
X0121500Y0266628D01*
X0124500Y0266628D01*
X0126000Y0270628D02*
X0128500Y0268128D01*
X0128500Y0254628D01*
X0127500Y0245628D02*
X0118500Y0254628D01*
X0109500Y0253628D02*
X0108500Y0254628D01*
X0109500Y0253628D02*
X0109500Y0225128D01*
X0135500Y0199128D01*
X0168500Y0199128D01*
X0193500Y0174128D01*
X0193500Y0169628D01*
X0183500Y0169628D02*
X0174500Y0160628D01*
X0134000Y0160628D01*
X0129500Y0165128D01*
X0129500Y0175628D01*
X0094000Y0211128D01*
X0094000Y0259128D01*
X0105500Y0270628D01*
X0126000Y0270628D01*
X0131000Y0272628D02*
X0140000Y0263628D01*
X0139500Y0272628D02*
X0137000Y0272628D01*
X0132500Y0277128D01*
X0132500Y0315628D01*
X0108500Y0339628D01*
X0104500Y0337128D02*
X0104500Y0344128D01*
X0124000Y0363628D01*
X0124000Y0371628D01*
X0126500Y0374128D01*
X0131500Y0374128D01*
X0138500Y0367128D01*
X0168500Y0397128D01*
X0178500Y0397128D02*
X0148500Y0367128D01*
X0148500Y0339628D01*
X0148500Y0338128D01*
X0204500Y0282128D01*
X0204500Y0275128D01*
X0207000Y0272628D01*
X0290000Y0272628D01*
X0297000Y0279628D01*
X0297000Y0281628D01*
X0301000Y0285628D01*
X0310000Y0285628D01*
X0315500Y0291128D01*
X0348000Y0291128D01*
X0352500Y0286628D01*
X0352500Y0275128D01*
X0334500Y0275128D01*
X0330500Y0268128D02*
X0324500Y0262128D01*
X0324500Y0247628D01*
X0333500Y0238628D01*
X0348500Y0238628D01*
X0352000Y0235128D01*
X0352000Y0225128D01*
X0345000Y0221128D02*
X0339000Y0221128D01*
X0338500Y0220628D01*
X0326500Y0220628D01*
X0322000Y0225128D01*
X0322000Y0235128D01*
X0318000Y0239128D01*
X0305500Y0239128D01*
X0297000Y0247628D01*
X0248500Y0247628D01*
X0244500Y0243628D01*
X0238000Y0243628D01*
X0236000Y0245628D01*
X0127500Y0245628D01*
X0125000Y0229628D02*
X0139000Y0215628D01*
X0203500Y0215628D01*
X0209500Y0221628D01*
X0209500Y0234128D01*
X0212000Y0236628D01*
X0215000Y0236628D01*
X0217500Y0234128D01*
X0217500Y0224628D01*
X0215500Y0222628D01*
X0215500Y0219628D01*
X0218000Y0217128D01*
X0255000Y0217128D01*
X0277500Y0239628D01*
X0286000Y0239628D01*
X0296000Y0229628D01*
X0292000Y0241628D02*
X0276500Y0241628D01*
X0256000Y0221128D01*
X0219500Y0221128D01*
X0213500Y0218628D02*
X0213500Y0229628D01*
X0213500Y0218628D02*
X0221000Y0211128D01*
X0289000Y0211128D01*
X0299500Y0200628D01*
X0377500Y0200628D01*
X0386000Y0209128D01*
X0386000Y0229628D01*
X0390000Y0232128D02*
X0390000Y0210128D01*
X0356500Y0176628D01*
X0353500Y0176628D01*
X0346500Y0169628D01*
X0346000Y0169628D01*
X0318000Y0197628D01*
X0227500Y0197628D01*
X0214000Y0184128D01*
X0220500Y0185128D02*
X0238000Y0185128D01*
X0247500Y0194628D01*
X0263500Y0207128D02*
X0183000Y0207128D01*
X0175000Y0199128D02*
X0171500Y0199128D01*
X0169500Y0201128D01*
X0173000Y0189128D02*
X0160500Y0176628D01*
X0150500Y0176628D01*
X0148000Y0174128D01*
X0147500Y0174128D01*
X0140500Y0181128D01*
X0137500Y0181128D01*
X0107500Y0211128D01*
X0107500Y0240628D01*
X0105500Y0242628D01*
X0103500Y0248128D02*
X0099500Y0244128D01*
X0099500Y0216128D01*
X0143500Y0172128D01*
X0143500Y0169628D01*
X0147500Y0165128D02*
X0145000Y0162628D01*
X0142000Y0162628D01*
X0135000Y0169628D01*
X0133500Y0169628D01*
X0125500Y0158128D02*
X0114000Y0169628D01*
X0113500Y0169628D01*
X0113500Y0188628D01*
X0092000Y0210128D01*
X0092000Y0324628D01*
X0104500Y0337128D01*
X0123500Y0318628D02*
X0099000Y0294128D01*
X0098500Y0279628D02*
X0100000Y0279628D01*
X0107000Y0272628D01*
X0131000Y0272628D01*
X0139500Y0272628D02*
X0153000Y0259128D01*
X0153000Y0251128D01*
X0156500Y0247628D01*
X0243000Y0247628D01*
X0233500Y0229628D02*
X0232000Y0229628D01*
X0222000Y0239628D01*
X0209500Y0239628D01*
X0199500Y0232128D02*
X0199500Y0225128D01*
X0203500Y0221128D01*
X0199500Y0232128D02*
X0195000Y0236628D01*
X0172000Y0236628D01*
X0165000Y0229628D01*
X0163500Y0229628D01*
X0155500Y0219628D02*
X0182000Y0219628D01*
X0192000Y0229628D01*
X0193500Y0229628D01*
X0193000Y0265628D02*
X0152500Y0265628D01*
X0138500Y0279628D01*
X0158500Y0279628D02*
X0167500Y0270628D01*
X0190500Y0270628D01*
X0192500Y0277128D02*
X0192500Y0284128D01*
X0183250Y0293378D01*
X0183000Y0293128D01*
X0183250Y0293378D02*
X0144000Y0332628D01*
X0135500Y0332628D01*
X0128500Y0339628D01*
X0128500Y0367128D01*
X0126500Y0376128D02*
X0125500Y0376128D01*
X0118500Y0369128D01*
X0118500Y0367128D01*
X0126500Y0376128D02*
X0147500Y0397128D01*
X0148500Y0397128D01*
X0138500Y0397128D02*
X0108500Y0367128D01*
X0138500Y0367128D02*
X0138500Y0339628D01*
X0158500Y0339628D02*
X0158500Y0367128D01*
X0168500Y0367128D02*
X0168500Y0352628D01*
X0204000Y0352628D01*
X0214500Y0342128D01*
X0214500Y0334128D01*
X0227000Y0321628D01*
X0258000Y0321628D01*
X0262000Y0317628D01*
X0265500Y0315628D02*
X0263500Y0313628D01*
X0223000Y0313628D01*
X0202500Y0334128D01*
X0202500Y0344128D01*
X0200000Y0346628D01*
X0185500Y0346628D01*
X0178500Y0339628D01*
X0172500Y0348628D02*
X0201000Y0348628D01*
X0204500Y0345128D01*
X0204500Y0335128D01*
X0222000Y0317628D01*
X0256500Y0317628D01*
X0265500Y0315628D02*
X0267500Y0315628D01*
X0267000Y0329628D02*
X0274500Y0337128D01*
X0274500Y0344128D01*
X0304500Y0374128D01*
X0349500Y0374128D01*
X0346000Y0376128D02*
X0227500Y0376128D01*
X0218500Y0367128D01*
X0220000Y0378128D02*
X0320500Y0378128D01*
X0328000Y0385628D01*
X0328000Y0397628D01*
X0347000Y0416628D01*
X0348500Y0416628D01*
X0356500Y0424628D01*
X0356500Y0427628D01*
X0354500Y0429628D01*
X0354500Y0461628D01*
X0358500Y0465628D01*
X0358500Y0474628D01*
X0364500Y0474628D02*
X0356500Y0482628D01*
X0235000Y0482628D01*
X0223000Y0470628D01*
X0223000Y0462628D01*
X0220500Y0460128D01*
X0195500Y0460128D01*
X0188500Y0467128D01*
X0183000Y0477128D02*
X0223500Y0477128D01*
X0233000Y0486628D01*
X0336500Y0486628D01*
X0340000Y0490128D01*
X0340000Y0497128D01*
X0355000Y0512128D01*
X0354500Y0524628D02*
X0331500Y0501628D01*
X0318000Y0515628D02*
X0286500Y0515628D01*
X0263000Y0492128D01*
X0200000Y0492128D01*
X0218500Y0469128D02*
X0218500Y0467128D01*
X0218500Y0469128D02*
X0234000Y0484628D01*
X0357500Y0484628D01*
X0372500Y0469628D01*
X0372500Y0437128D01*
X0392500Y0417128D01*
X0392500Y0384628D01*
X0412500Y0364628D01*
X0412500Y0352628D01*
X0404500Y0344628D01*
X0404500Y0328128D01*
X0390000Y0313628D01*
X0359000Y0313628D01*
X0350000Y0304628D01*
X0348500Y0304628D01*
X0358500Y0304628D02*
X0360000Y0304628D01*
X0367000Y0311628D01*
X0402500Y0311628D01*
X0388500Y0317628D02*
X0373000Y0317628D01*
X0371000Y0315628D01*
X0310000Y0315628D01*
X0282500Y0288128D01*
X0268500Y0288128D01*
X0280500Y0300128D02*
X0249000Y0300128D01*
X0228500Y0279628D01*
X0208500Y0279628D02*
X0233000Y0304128D01*
X0290000Y0304128D01*
X0289000Y0311628D02*
X0222000Y0311628D01*
X0198500Y0335128D01*
X0198500Y0339628D01*
X0224500Y0329628D02*
X0267000Y0329628D01*
X0278500Y0339628D02*
X0285500Y0346628D01*
X0290000Y0346628D01*
X0292000Y0344628D01*
X0316000Y0344628D01*
X0320000Y0342628D02*
X0320000Y0350628D01*
X0339500Y0370128D01*
X0351000Y0370128D01*
X0362500Y0381628D01*
X0362500Y0444128D01*
X0358500Y0448128D01*
X0358500Y0459628D01*
X0352500Y0456628D02*
X0352500Y0426128D01*
X0348000Y0421628D02*
X0348000Y0420628D01*
X0324000Y0396628D01*
X0324000Y0394128D01*
X0320000Y0395628D02*
X0320000Y0383128D01*
X0320000Y0395628D02*
X0332500Y0408128D01*
X0332500Y0461628D01*
X0322000Y0472128D01*
X0306000Y0472128D01*
X0291500Y0478628D02*
X0330500Y0478628D01*
X0352500Y0456628D01*
X0344000Y0470628D02*
X0341500Y0470628D01*
X0331500Y0480628D01*
X0242000Y0480628D01*
X0228500Y0467128D01*
X0221000Y0458128D02*
X0271000Y0458128D01*
X0291500Y0478628D01*
X0302000Y0531628D02*
X0234000Y0531628D01*
X0221000Y0458128D02*
X0210000Y0447128D01*
X0208500Y0447128D01*
X0200000Y0447128D02*
X0223000Y0424128D01*
X0240000Y0424128D01*
X0252000Y0412128D01*
X0252000Y0393628D01*
X0256000Y0389628D01*
X0258500Y0367128D02*
X0251500Y0360128D01*
X0227500Y0308128D02*
X0207500Y0288128D01*
X0192500Y0277128D02*
X0199000Y0270628D01*
X0298000Y0270628D01*
X0316500Y0289128D01*
X0340000Y0289128D01*
X0347000Y0282128D01*
X0348500Y0282128D01*
X0352500Y0275128D02*
X0361500Y0275128D01*
X0368500Y0282128D01*
X0360000Y0282128D02*
X0372000Y0294128D01*
X0407000Y0294128D01*
X0419000Y0282128D01*
X0419000Y0270628D01*
X0424000Y0265628D01*
X0428000Y0265628D01*
X0440000Y0277628D01*
X0440000Y0432128D01*
X0380000Y0492128D01*
X0376500Y0487628D02*
X0374500Y0487628D01*
X0372000Y0490128D01*
X0372000Y0516128D01*
X0370000Y0499128D02*
X0370000Y0482128D01*
X0402500Y0449628D01*
X0407000Y0439628D02*
X0389500Y0457128D01*
X0376500Y0457128D01*
X0364500Y0474628D02*
X0364500Y0405128D01*
X0368500Y0401128D01*
X0368500Y0387128D01*
X0358500Y0387128D02*
X0357000Y0387128D01*
X0346000Y0376128D01*
X0343000Y0368128D02*
X0328000Y0353128D01*
X0324000Y0343628D02*
X0344500Y0364128D01*
X0402500Y0364128D01*
X0394500Y0368128D02*
X0343000Y0368128D01*
X0320000Y0342628D02*
X0289000Y0311628D01*
X0299500Y0308128D02*
X0227500Y0308128D01*
X0188500Y0278128D02*
X0198000Y0268628D01*
X0294500Y0268628D01*
X0311000Y0252128D01*
X0318500Y0252128D01*
X0317000Y0243128D02*
X0321000Y0243128D01*
X0332000Y0232128D01*
X0326000Y0234128D02*
X0326000Y0229628D01*
X0326000Y0234128D02*
X0319000Y0241128D01*
X0316000Y0241128D01*
X0313500Y0243628D01*
X0308000Y0243628D01*
X0312000Y0236628D02*
X0317500Y0236628D01*
X0320000Y0234128D01*
X0317000Y0243128D02*
X0298500Y0261628D01*
X0164000Y0261628D01*
X0188500Y0278128D02*
X0188500Y0279628D01*
X0168500Y0339628D02*
X0168500Y0352628D01*
X0116000Y0422128D02*
X0116000Y0443128D01*
X0116300Y0443228D01*
X0116000Y0443628D01*
X0105000Y0454628D01*
X0105000Y0487128D01*
X0062000Y0413628D02*
X0062000Y0394628D01*
X0037000Y0369628D01*
X0062000Y0394628D02*
X0066000Y0394628D01*
X0062000Y0413628D02*
X0031000Y0444628D01*
X0123500Y0229628D02*
X0125000Y0229628D01*
X0148500Y0195128D02*
X0142500Y0189128D01*
X0139000Y0185128D02*
X0163500Y0185128D01*
X0173500Y0179628D02*
X0173500Y0169628D01*
X0173500Y0179628D02*
X0178000Y0184128D01*
X0200500Y0158128D02*
X0125500Y0158128D01*
X0126000Y0136628D02*
X0088000Y0174628D01*
X0126000Y0136628D02*
X0126000Y0128628D01*
X0126300Y0128228D01*
X0147500Y0165128D02*
X0147500Y0174128D01*
X0148500Y0195128D02*
X0150500Y0195128D01*
X0203500Y0169628D02*
X0205000Y0169628D01*
X0216000Y0158628D01*
X0365000Y0158628D01*
X0376000Y0169628D01*
X0370500Y0155628D02*
X0229500Y0155628D01*
X0228500Y0154628D01*
X0230000Y0150628D02*
X0219500Y0150628D01*
X0216000Y0154128D01*
X0230000Y0150628D02*
X0233000Y0153628D01*
X0325500Y0153628D01*
X0327500Y0151628D01*
X0329500Y0151628D01*
X0316000Y0169628D02*
X0316000Y0189128D01*
X0311500Y0193628D01*
X0306000Y0193628D02*
X0306000Y0169628D01*
X0325500Y0196628D02*
X0346000Y0196628D01*
X0362000Y0225128D02*
X0362000Y0232128D01*
X0353500Y0240628D01*
X0338500Y0240628D01*
X0328500Y0250628D01*
X0328500Y0252128D01*
X0334500Y0247628D02*
X0337000Y0245128D01*
X0341500Y0245128D01*
X0348500Y0252128D01*
X0347000Y0250128D01*
X0366000Y0231128D01*
X0366000Y0229628D01*
X0376500Y0238628D02*
X0385000Y0238628D01*
X0398500Y0252128D01*
X0402500Y0244628D02*
X0390000Y0232128D01*
X0396000Y0229628D02*
X0396000Y0208128D01*
X0384000Y0218128D02*
X0375000Y0209128D01*
X0298000Y0209128D01*
X0281000Y0226128D01*
X0281000Y0235628D01*
X0328500Y0260628D02*
X0331000Y0263128D01*
X0388500Y0263128D01*
X0380000Y0282128D02*
X0388000Y0290128D01*
X0405500Y0290128D01*
X0417000Y0301628D02*
X0419000Y0301628D01*
X0438000Y0320628D01*
X0438000Y0426128D01*
X0376500Y0487628D01*
X0356000Y0524628D02*
X0354500Y0524628D01*
X0407000Y0439628D02*
X0408500Y0439628D01*
X0410000Y0439628D01*
X0430000Y0419628D01*
X0434000Y0410128D02*
X0415500Y0428628D01*
X0386500Y0428628D01*
X0390000Y0341628D02*
X0377000Y0341628D01*
X0372500Y0337128D01*
X0372500Y0330128D01*
X0362000Y0319628D01*
X0305500Y0319628D01*
X0309000Y0317628D02*
X0299500Y0308128D01*
X0309000Y0317628D02*
X0370000Y0317628D01*
X0387000Y0334628D01*
X0388500Y0334628D01*
X0390000Y0341628D02*
X0397000Y0334628D01*
X0398500Y0334628D01*
X0380000Y0282128D02*
X0378500Y0282128D01*
X0360000Y0282128D02*
X0358500Y0282128D01*
X0346500Y0268128D02*
X0330500Y0268128D01*
X0280000Y0162628D02*
X0249000Y0162628D01*
X0246500Y0165128D01*
X0271000Y0129628D02*
X0295500Y0129628D01*
X0300500Y0134628D01*
X0302500Y0134628D01*
X0348500Y0106128D02*
X0255000Y0106128D01*
X0251000Y0102128D01*
X0210500Y0098128D02*
X0182500Y0098128D01*
X0178500Y0102128D01*
X0161000Y0047128D02*
X0358500Y0047128D01*
X0378500Y0027128D01*
X0381000Y0027128D01*
X0348500Y0106128D02*
X0362000Y0119628D01*
X0366000Y0119628D01*
X0213500Y0169628D02*
X0213500Y0171128D01*
X0200000Y0447128D02*
X0198500Y0447128D01*
D27*
X0186500Y0484128D03*
X0173500Y0486628D03*
X0172500Y0456128D03*
X0166000Y0439128D03*
X0200000Y0492128D03*
X0220000Y0378128D03*
X0224500Y0329628D03*
X0207500Y0288128D03*
X0190500Y0270628D03*
X0193000Y0265628D03*
X0183000Y0293128D03*
X0164000Y0261628D03*
X0140000Y0263628D03*
X0124500Y0266628D03*
X0105500Y0242628D03*
X0103500Y0248128D03*
X0099000Y0294128D03*
X0123500Y0318628D03*
X0172500Y0348628D03*
X0209500Y0239628D03*
X0203500Y0221128D03*
X0219500Y0221128D03*
X0243000Y0247628D03*
X0268500Y0288128D03*
X0280500Y0300128D03*
X0290000Y0304128D03*
X0305500Y0319628D03*
X0324000Y0343628D03*
X0328000Y0353128D03*
X0349500Y0374128D03*
X0324000Y0394128D03*
X0320000Y0383128D03*
X0348000Y0421628D03*
X0352500Y0426128D03*
X0376500Y0457128D03*
X0386500Y0428628D03*
X0402500Y0449628D03*
X0430000Y0419628D03*
X0434000Y0410128D03*
X0402500Y0364128D03*
X0394500Y0368128D03*
X0388500Y0317628D03*
X0402500Y0311628D03*
X0417000Y0301628D03*
X0405500Y0290128D03*
X0388500Y0263128D03*
X0402500Y0244628D03*
X0380000Y0219628D03*
X0372500Y0215128D03*
X0367000Y0215128D03*
X0359500Y0219128D03*
X0345000Y0221128D03*
X0346000Y0196628D03*
X0325500Y0196628D03*
X0311500Y0193628D03*
X0306000Y0193628D03*
X0280000Y0162628D03*
X0263500Y0207128D03*
X0249000Y0190628D03*
X0246500Y0165128D03*
X0228500Y0154628D03*
X0216000Y0154128D03*
X0200500Y0158128D03*
X0217500Y0176628D03*
X0214000Y0184128D03*
X0220500Y0185128D03*
X0183000Y0207128D03*
X0175000Y0199128D03*
X0173000Y0189128D03*
X0178000Y0184128D03*
X0163500Y0185128D03*
X0150500Y0195128D03*
X0142500Y0189128D03*
X0139000Y0185128D03*
X0165000Y0211628D03*
X0155500Y0219628D03*
X0221000Y0096128D03*
X0281000Y0235628D03*
X0295500Y0243628D03*
X0308000Y0243628D03*
X0328500Y0260628D03*
X0334500Y0275128D03*
X0346500Y0268128D03*
X0376500Y0238628D03*
X0376000Y0204628D03*
X0400000Y0194128D03*
X0352000Y0145628D03*
X0329500Y0151628D03*
X0267500Y0315628D03*
X0262000Y0317628D03*
X0256500Y0317628D03*
X0344000Y0470628D03*
X0331500Y0501628D03*
X0318000Y0515628D03*
X0302000Y0531628D03*
X0355000Y0512128D03*
X0372000Y0516128D03*
D28*
X0328500Y0474628D02*
X0328500Y0469128D01*
X0348500Y0449128D01*
X0348500Y0439628D01*
X0328500Y0459628D02*
X0310000Y0459628D01*
X0308000Y0461628D01*
X0280500Y0461628D01*
X0276000Y0457128D01*
X0276000Y0439628D01*
X0280500Y0435128D01*
X0276000Y0439628D02*
X0259500Y0439628D01*
X0249500Y0429628D01*
X0246000Y0429628D01*
X0246000Y0412128D02*
X0246000Y0389628D01*
X0250500Y0385128D01*
X0276000Y0385128D01*
X0288000Y0385128D01*
X0292500Y0389628D01*
X0296000Y0389628D01*
X0263500Y0412128D02*
X0276000Y0424628D01*
X0263500Y0412128D02*
X0256000Y0412128D01*
X0228500Y0417128D02*
X0228500Y0397128D01*
X0222500Y0479628D02*
X0185000Y0479628D01*
X0182000Y0482628D01*
X0182000Y0490128D01*
X0168000Y0504128D01*
X0149000Y0504128D01*
X0144500Y0499628D01*
X0121000Y0499628D01*
X0090700Y0461028D02*
X0090500Y0459628D01*
X0106000Y0444128D01*
X0106000Y0422128D01*
X0090500Y0460628D02*
X0082000Y0460628D01*
X0061000Y0439628D01*
X0090500Y0460628D02*
X0090700Y0461028D01*
X0138500Y0447128D02*
X0145500Y0454128D01*
X0150500Y0454128D01*
X0157500Y0447128D01*
X0158500Y0447128D01*
X0222500Y0479628D02*
X0232500Y0489628D01*
X0271000Y0489628D01*
X0276000Y0494628D01*
X0276000Y0514628D02*
X0286000Y0524628D01*
X0326000Y0524628D01*
X0426000Y0412128D02*
X0421500Y0407628D01*
X0421500Y0400128D01*
X0426000Y0395628D01*
X0426000Y0372128D01*
X0421500Y0367628D01*
X0421500Y0360128D01*
X0426000Y0355628D01*
X0426000Y0324628D01*
X0430500Y0322628D02*
X0426500Y0318628D01*
X0426500Y0315128D01*
X0426000Y0314628D01*
X0424000Y0314628D01*
X0414000Y0304628D01*
X0412500Y0304628D01*
X0412500Y0296628D01*
X0301500Y0296628D01*
X0288500Y0283628D01*
X0288500Y0279628D01*
X0318500Y0282128D02*
X0330000Y0270628D01*
X0336000Y0270628D01*
X0338000Y0272628D01*
X0398000Y0272628D01*
X0399000Y0273628D01*
X0425500Y0247128D01*
X0425500Y0180128D01*
X0426000Y0179628D01*
X0435500Y0170128D01*
X0435500Y0091628D01*
X0431000Y0087128D01*
X0404000Y0141128D02*
X0410500Y0147628D01*
X0410500Y0169628D01*
X0406000Y0169628D01*
X0405500Y0170128D01*
X0405500Y0221128D01*
X0401500Y0225128D01*
X0401500Y0237628D01*
X0408500Y0244628D01*
X0408500Y0252128D01*
X0399000Y0273628D02*
X0407500Y0282128D01*
X0408500Y0282128D01*
X0412500Y0292128D02*
X0421500Y0283128D01*
X0421500Y0274128D01*
X0426000Y0269628D01*
X0412500Y0292128D02*
X0412500Y0296628D01*
X0412500Y0304628D02*
X0408500Y0304628D01*
X0430500Y0322628D02*
X0430500Y0357628D01*
X0426000Y0362128D01*
X0408500Y0357128D02*
X0401500Y0350128D01*
X0375000Y0350128D01*
X0359500Y0334628D01*
X0358500Y0334628D01*
X0361500Y0327628D02*
X0368500Y0334628D01*
X0361500Y0327628D02*
X0346500Y0327628D01*
X0339500Y0334628D01*
X0338500Y0334628D01*
X0276000Y0229628D02*
X0276000Y0227628D01*
X0299000Y0204628D01*
X0376000Y0204628D01*
X0410500Y0169628D02*
X0426000Y0169628D01*
X0404000Y0141128D02*
X0302500Y0141128D01*
X0296500Y0135128D01*
X0295000Y0135128D01*
X0294500Y0134628D01*
X0289500Y0139628D01*
X0271000Y0139628D01*
X0270500Y0139128D01*
X0264500Y0139128D01*
X0251500Y0126128D01*
X0251300Y0125728D01*
X0221000Y0102128D02*
X0208500Y0089628D01*
X0208500Y0087128D01*
X0204000Y0082628D01*
X0175000Y0082628D01*
X0163500Y0064628D02*
X0198500Y0064628D01*
X0221000Y0087128D01*
X0177500Y0137128D02*
X0176000Y0137128D01*
X0171000Y0142128D01*
X0148500Y0142128D01*
X0233500Y0169628D02*
X0253500Y0169628D01*
X0323500Y0119628D02*
X0339500Y0119628D01*
X0344000Y0124128D01*
X0368000Y0124128D01*
X0370500Y0121628D01*
X0370500Y0116628D01*
X0356000Y0102128D01*
X0061000Y0214628D02*
X0031000Y0244628D01*
X0142969Y0684441D02*
X0143000Y0684628D01*
X0150000Y0691628D01*
X0245500Y0691628D01*
X0252500Y0684628D01*
X0252969Y0684441D01*
D29*
X0175000Y0082628D02*
X0154000Y0082628D01*
X0146000Y0074628D01*
X0146000Y0059628D01*
X0151000Y0054628D01*
X0163500Y0054628D01*
X0151000Y0054628D02*
X0136000Y0054628D01*
X0131000Y0059628D01*
D30*
X0136000Y0054628D02*
X0141000Y0049628D01*
X0141000Y0034770D01*
X0140701Y0034471D01*
X0151000Y0039628D02*
X0151000Y0047128D01*
X0151000Y0039628D02*
X0156157Y0034471D01*
X0156299Y0034471D01*
X0106000Y0029628D02*
X0106000Y0044628D01*
X0256000Y0069628D02*
X0271000Y0069628D01*
X0276000Y0385128D02*
X0280500Y0389628D01*
X0280500Y0435128D01*
D31*
X0271000Y0069628D03*
X0256000Y0069628D03*
X0161000Y0047128D03*
X0151000Y0047128D03*
X0106000Y0044628D03*
X0106000Y0029628D03*
D32*
X0018500Y0022128D03*
X0438500Y0022128D03*
X0438500Y0687128D03*
X0018500Y0687128D03*
M02*
